<?xml version="1.0" encoding="UTF-8"?>
<svg width="27px" height="27px" viewBox="0 0 27 27" version="1.1" xmlns="http://www.w3.org/2000/svg" xmlns:xlink="http://www.w3.org/1999/xlink">
    <g id="L4" stroke="none" stroke-width="1" fill="none" fill-rule="evenodd">
        <g id="移动端-L4官网-全" transform="translate(-282.000000, -7966.000000)" fill="#FFFFFF">
            <g id="编组-23" transform="translate(0.000000, 5608.000000)">
                <g id="编组-21" transform="translate(0.000000, 2014.000000)">
                    <g id="编组-5" transform="translate(282.000000, 344.000000)">
                        <rect id="矩形" stroke="#FFFFFF" opacity="0" x="0.5" y="0.5" width="26" height="26"></rect>
                        <path d="M20.5877432,7.04881133 C20.5820797,7.03783729 20.5726943,7.02923805 20.5612679,7.02455389 C19.2401652,6.41841716 17.8460232,5.98619422 16.4137308,5.73870165 C16.3870414,5.73373981 16.3601783,5.74645191 16.3470922,5.77023633 C16.1572536,6.11479211 15.9849222,6.46870766 15.8307552,6.83063298 C14.2868223,6.59626515 12.7163587,6.59626515 11.1724258,6.83063298 C11.0172382,6.46778864 10.8421452,6.11378485 10.6479453,5.77023633 C10.6343141,5.7470209 10.6078653,5.73451133 10.581272,5.73870165 C9.14882825,5.98567464 7.75459565,6.41793007 6.4336656,7.02458854 C6.42235791,7.02938233 6.41281673,7.03756741 6.40635865,7.0480143 C3.7647581,10.9928978 3.04112402,14.8407862 3.39611433,18.641026 C3.39813203,18.659844 3.40769826,18.6770382 3.42262424,18.6886746 C4.96080376,19.8275798 6.68127617,20.6969149 8.51062226,21.259582 C8.5370064,21.2674966 8.56552871,21.2581504 8.5821124,21.2361562 C8.97501626,20.70155 9.32315859,20.1354493 9.62299914,19.5436107 C9.6313327,19.5271834 9.6322397,19.5079755 9.62549119,19.490836 C9.61874268,19.4736965 9.60498355,19.4602633 9.58768724,19.4539275 C9.03869222,19.2438697 8.50720093,18.99065 7.99820117,18.6966449 C7.97942403,18.6856064 7.96738421,18.665935 7.96609741,18.6441917 C7.96481062,18.6224484 7.97444617,18.6014942 7.99179027,18.5883181 C8.09889613,18.5083137 8.20414361,18.4258512 8.30744887,18.3409961 C8.32593016,18.3257746 8.35143958,18.3223375 8.37329049,18.3321248 C11.7079608,19.854002 15.3181955,19.854002 18.6133955,18.3321248 C18.6353129,18.3217063 18.6612718,18.32485 18.6800688,18.3401991 C18.7834915,18.4255028 18.889009,18.5082344 18.9965244,18.5883181 C19.0139613,18.601359 19.0237491,18.6222345 19.0226222,18.6439794 C19.0214953,18.6657243 19.009602,18.6854762 18.9909105,18.6966449 C18.4830682,18.9931232 17.9510951,19.2461843 17.4006621,19.4531304 C17.3833742,19.4597092 17.3697098,19.4733445 17.363094,19.4906182 C17.3564782,19.507892 17.3575383,19.5271667 17.3660086,19.5436107 C17.6708692,20.132158 18.0184988,20.6975455 18.4060983,21.2352206 C18.4222317,21.2578396 18.4510215,21.2676083 18.4775885,21.259478 C20.3102127,20.6987185 22.0336921,19.8293026 23.5737994,18.6886746 C23.5889697,18.6776029 23.5986308,18.6605288 23.6003093,18.641823 C24.0252996,14.2483502 22.8888039,10.4319965 20.5877432,7.04881133 L20.5877432,7.04881133 Z M10.1210044,16.3270742 C9.1170236,16.3270742 8.28977559,15.4057419 8.28977559,14.2742363 C8.28977559,13.1427307 9.10097904,12.2213292 10.1210044,12.2213292 C11.149,12.2213292 11.9682431,13.1507357 11.9521985,14.274167 C11.9521985,15.4057419 11.1409604,16.3270742 10.1210044,16.3270742 Z M16.8916024,16.3270742 C15.8876563,16.3270742 15.0604083,15.4057419 15.0604083,14.2742363 C15.0604083,13.1427307 15.8716117,12.2213292 16.8916024,12.2213292 C17.9196673,12.2213292 18.7388757,13.1507357 18.7228312,14.274167 C18.7228312,15.4057419 17.9196673,16.3270742 16.8916024,16.3270742 Z" id="形状" fill-rule="nonzero"></path>
                    </g>
                </g>
            </g>
        </g>
    </g>
</svg>