<?xml version="1.0" encoding="UTF-8"?>
<svg width="220px" height="64px" viewBox="0 0 220 64" version="1.1" xmlns="http://www.w3.org/2000/svg" xmlns:xlink="http://www.w3.org/1999/xlink">
    <g id="L4" stroke="none" stroke-width="1" fill="none" fill-rule="evenodd">
        <g id="L4官网" transform="translate(-364.000000, -4680.000000)">
            <g id="编组-16" transform="translate(0.000000, 3456.000000)">
                <g id="编组-9" transform="translate(120.000000, 1019.000000)">
                    <g id="编组-28" transform="translate(244.000000, 205.000000)">
                        <rect id="矩形备份-12" fill-opacity="0" fill="#9D9D9D" x="0" y="0" width="220" height="64"></rect>
                        <path d="M76.2553213,27.1414138 C75.4031222,26.6506818 74.5448086,26.6485088 73.6926095,27.1412117 C69.6819073,29.4601997 65.6717609,31.7801985 61.6644445,34.1050989 C61.5050109,34.197626 61.3880255,34.199041 61.2300574,34.1068171 C59.6107074,33.161434 57.9880727,32.2215591 56.3632145,31.2855248 C56.2082279,31.1962319 56.1385926,31.0964785 56.1392495,30.9096052 C56.1461221,29.0351109 56.1459199,27.160566 56.1394516,25.2860718 C56.1388452,25.1019272 56.2009511,24.9976258 56.3582117,24.9071706 C57.9981794,23.9637584 59.6354184,23.0156465 61.2702317,22.0633403 C61.3956056,21.9903193 61.4882843,21.9858218 61.6145678,22.0593987 C63.2565569,23.015697 64.9007694,23.9683064 66.5473065,24.9168226 C66.6884975,24.9981312 66.7456005,25.0921742 66.7441855,25.2568128 C66.7368582,26.1057272 66.7408503,26.9547931 66.7408503,27.803758 L66.7408503,28.2429458 C66.8037647,28.2254106 66.8376222,28.2228334 66.8642029,28.2076228 C67.7620338,27.6945043 68.6612291,27.1835588 69.5526423,26.6595251 C69.6241474,26.6174812 69.6767023,26.4845777 69.6785721,26.3927076 C69.6898916,25.829763 69.6878703,25.2664142 69.683019,24.7032675 C69.675439,23.8154422 69.2872397,23.1172191 68.5320652,22.6732307 C66.5604453,21.5141409 64.5736147,20.3806717 62.5861273,19.248769 C62.1565914,19.0040852 61.6871846,18.9036244 61.1795238,18.969975 C60.7482698,19.02632 60.3791217,19.2084937 60.0135109,19.4192695 C58.1997075,20.4648607 56.3895425,21.5168697 54.5684118,22.5496254 C53.6554713,23.0673929 53.2024879,23.8286315 53.2038462,24.8729088 C53.2067832,27.0416099 53.2026395,29.2103615 53.2056715,31.3791131 C53.2070864,32.370886 53.6405639,33.1149936 54.5043351,33.6123961 C56.3404239,34.6698122 58.1810606,35.7196988 60.0055266,36.796823 C60.9623808,37.3616879 61.8792629,37.3593128 62.8360666,36.802786 C66.7974985,34.4988064 70.7671169,32.2088752 74.7300648,29.9074728 C74.9017276,29.8078205 75.0257876,29.8180283 75.1876974,29.9125262 C76.7998211,30.8532096 78.4144209,31.7897493 80.0320023,32.7211346 C80.1979547,32.8166936 80.2671858,32.9289288 80.2666299,33.1215125 C80.2612228,34.9876182 80.2616271,36.8537239 80.2663267,38.7198296 C80.2667815,38.8995777 80.2106892,39.0138848 80.0509018,39.1058054 C78.4183625,40.0449728 76.7881478,40.9881324 75.1612177,41.9368507 C75.0109813,42.0244255 74.900818,42.0250319 74.7499246,41.9369012 C73.1306251,40.9913666 71.5084452,40.0507842 69.8821721,39.117226 C69.7039905,39.0148954 69.6411267,38.8941201 69.6429459,38.6949165 C69.6510313,37.8123467 69.6464327,36.9297265 69.6463822,36.0470556 L69.6463822,35.7748815 C69.5802842,35.784685 69.5521875,35.7814509 69.5325804,35.792821 C68.6523352,36.3028063 67.7702708,36.8097596 66.897454,37.3320752 C66.8132145,37.3825077 66.7437307,37.5279435 66.7406987,37.6314364 C66.7250838,38.1605234 66.7383236,38.690419 66.7324617,39.2199103 C66.721597,40.2032442 67.161189,40.9246622 68.0035845,41.4104925 C69.8754006,42.4899918 71.7563631,43.5539772 73.618982,44.6489904 C74.5296485,45.1843436 75.3987258,45.181918 76.3058549,44.6522245 C78.1720111,43.5625174 80.049689,42.4925184 81.9235264,41.4158996 C82.7898749,40.9180423 83.2102641,40.1600379 83.2134982,39.1744806 C83.2205224,37.0226073 83.2148626,34.8706328 83.2160249,32.7187595 C83.2166313,31.6810009 82.7862364,30.9015703 81.8720326,30.3796085 C79.9952643,29.308144 78.1281479,28.2198519 76.2553213,27.1414138 Z M134.249574,33.706798 C133.723115,32.6248225 133.744086,31.5070187 134.276054,30.4286817 C134.752485,29.462782 135.693269,29.0281928 136.902438,29.1514949 C137.849034,29.2480141 138.670913,29.9590222 138.947786,30.9589816 C139.049814,31.3275233 139.086804,31.7140045 139.153408,32.0922992 C139.112728,32.8124539 138.974569,33.4886443 138.545286,34.0738237 C137.460329,35.5528924 135.052503,35.3570746 134.249574,33.706798 Z M138.92727,26.7695924 L138.92727,27.7136111 C138.584753,27.4741322 138.289636,27.2205545 137.954295,27.0426256 C137.117155,26.5985867 136.213563,26.5189457 135.28233,26.6311303 C133.487375,26.8474142 132.19518,27.7550992 131.481241,29.4212939 C130.889947,30.8012661 130.831783,32.245315 131.136248,33.696388 C131.855796,37.1260041 134.833793,37.9889668 137.130142,37.4798911 C137.833975,37.3238432 138.443056,36.9938587 138.931211,36.4100942 C138.931211,36.9753634 138.962188,37.5027828 138.923833,38.0251994 C138.868297,38.7815867 138.293224,39.4841052 137.234545,39.459849 C135.754011,39.4259915 134.272112,39.4513089 132.79082,39.4513089 C132.693593,39.4513594 132.596316,39.4513594 132.499292,39.4513594 L132.499292,41.7592806 C132.561852,41.7633738 132.610668,41.7693876 132.659433,41.7693876 C134.502596,41.7676692 136.34581,41.7719645 138.188923,41.7595838 C138.817965,41.755339 139.421994,41.602778 139.983372,41.3144836 C141.342171,40.6165637 141.907692,39.4551494 141.908754,37.9764345 C141.91128,34.329069 141.909714,30.6817036 141.909006,27.0343381 C141.909006,26.9454495 141.899506,26.8566113 141.894503,26.7695924 L138.92727,26.7695924 Z M93.9191225,33.7479323 C93.3632021,32.6473605 93.3790191,31.5068166 93.9402456,30.4061437 C94.423347,29.4587393 95.3614532,29.0307195 96.5553101,29.1508379 C97.4910413,29.2449821 98.3063508,29.9443169 98.5887832,30.9366457 C98.6957124,31.3121611 98.7336631,31.707233 98.8030458,32.0933604 C98.7652466,32.8061372 98.6220849,33.4717661 98.205991,34.0535597 C97.1471094,35.5341949 94.7406477,35.3744076 93.9191225,33.7479323 Z M93.8013792,27.8012869 C93.7836419,27.8215004 93.7526142,27.8300911 93.6992507,27.8602091 L93.6992507,26.7641853 L90.7791147,26.7641853 L90.7791147,41.7462429 L93.7132485,41.7462429 L93.7132485,36.6271867 C94.1095332,36.8602983 94.4898493,37.1376268 94.9114513,37.3199522 C95.6193263,37.6260849 96.3747535,37.6641872 97.1398831,37.5803519 C98.8658591,37.3912551 100.189941,36.5849911 101.00995,35.0387127 C101.723687,33.6928001 101.799134,32.2499641 101.572491,30.7733716 C101.166554,28.1287448 99.2082244,26.4925166 96.534743,26.5938365 C95.4736884,26.6340107 94.5254755,26.9762244 93.8013792,27.8012869 Z M108.04034,35.0374292 C106.863462,34.8785514 106.070286,34.1329278 105.816254,33.0043098 C105.608359,32.0804036 105.66344,31.1761549 106.164127,30.3523052 C106.767853,29.3590162 107.695802,28.9984083 108.818659,29.1598127 C109.869758,29.3109082 110.541603,29.9508155 110.860824,30.9437002 C110.979982,31.3142633 111.011111,31.7129736 111.082413,32.0988483 C111.044918,32.7229891 110.923182,33.3097351 110.603153,33.8420057 C110.017468,34.8161424 109.019126,35.1695241 108.04034,35.0374292 Z M105.236178,27.4446509 C103.786621,28.3469288 102.99102,29.6762158 102.787167,31.3586823 C102.595948,32.9367969 102.916736,34.4005034 103.953029,35.6298349 C105.433664,37.3862826 107.392852,37.8953583 109.576916,37.4924537 C112.304468,36.9892904 114.003409,34.8713757 114.017356,32.1145643 C114.011342,30.7113466 113.605608,29.4497746 112.657698,28.3939251 C111.711254,27.3396926 110.507644,26.7862483 109.108216,26.6323734 C107.728093,26.4805704 106.422506,26.7062031 105.236178,27.4446509 Z M148.581517,34.9525529 C147.593584,34.6912435 147.023919,33.9920097 146.784743,33.0294453 C146.556634,32.1111482 146.625815,31.2081123 147.104217,30.3718314 C147.63957,29.4358981 148.628917,28.9999951 149.8016,29.1555375 C150.79494,29.2872787 151.618385,30.0603421 151.87929,31.1333226 C151.956001,31.4489051 151.978741,31.7776263 152.026192,32.100334 C151.996781,32.9018984 151.816477,33.6456017 151.260304,34.2422523 C150.523625,35.0325476 149.59704,35.2210886 148.581517,34.9525529 Z M148.560697,26.6357289 C147.098506,26.8118891 145.855783,27.4148058 144.910906,28.5613632 C143.990739,29.6779036 143.637812,30.9832882 143.703809,32.4097009 C143.765814,33.7484882 144.210055,34.9474995 145.15473,35.9127423 C146.643299,37.4337539 148.496469,37.874306 150.531053,37.4959102 C153.255624,36.9892096 154.958405,34.8771062 154.986805,32.1173639 C154.963004,31.8332133 154.954312,31.5468392 154.913026,31.2652659 C154.634333,29.3652016 153.648978,27.9679974 151.905618,27.1368203 C150.846838,26.6320904 149.7211,26.4959023 148.560697,26.6357289 Z M163.265871,26.6158136 C161.811664,26.4844261 160.527251,26.8440739 159.628359,28.1043826 C159.617191,28.120048 159.592076,28.1257583 159.556702,28.1454664 L159.556702,26.7749439 L156.603416,26.7749439 L156.603416,37.4250065 L159.559633,37.4250065 C159.559633,37.3175215 159.559633,37.2267631 159.559633,37.1359542 C159.559633,35.3377657 159.555287,33.5395771 159.56403,31.7414392 C159.565445,31.4502644 159.590408,31.1502968 159.663581,30.8697847 C160.133746,29.0671492 162.136191,28.8606688 163.078239,29.686843 C163.622638,30.1642847 163.815171,30.786101 163.813857,31.4902365 C163.81032,33.3640739 163.812745,35.2378607 163.812796,37.111698 L163.812796,37.4228841 L166.780484,37.4228841 C166.785436,37.3638608 166.791955,37.3230802 166.791905,37.2823501 C166.790338,35.0388087 166.808429,32.7950652 166.780029,30.5518776 C166.755419,28.6051203 165.547666,26.8218897 163.265871,26.6158136 Z M127.536061,26.978271 C127.070393,28.438996 126.596085,29.8968911 126.124252,31.3555947 C125.885329,32.0942447 125.646154,32.8327431 125.393031,33.6146499 C125.351997,33.4986752 125.325568,33.4288378 125.302373,33.3579391 C124.610214,31.2392663 123.916135,29.1212 123.230242,27.0005058 C123.169096,26.8115606 123.088041,26.7408641 122.879337,26.744452 C122.046391,26.758854 121.213041,26.7499601 120.379792,26.7511224 C120.301465,26.7512235 120.223138,26.7616839 120.128337,26.7685565 C120.168359,26.8903425 120.194485,26.978271 120.225968,27.0642287 C121.456512,30.4238557 122.688977,33.7827753 123.912648,37.1449289 C123.958381,37.2705555 123.954642,37.4389336 123.912547,37.5673395 C123.724613,38.1403403 123.513938,38.7059126 123.312208,39.2744159 C123.021336,40.0941724 122.731071,40.9141815 122.434186,41.7520796 C122.530453,41.7563749 122.603575,41.7623884 122.676747,41.7624895 C123.459463,41.7631464 124.242279,41.7561222 125.024843,41.7678966 C125.210958,41.7706759 125.282615,41.7056392 125.340122,41.5373622 C125.806396,40.1735607 126.268071,38.8078895 126.758753,37.4527293 C128.01138,33.9932984 129.27841,30.5390219 130.539123,27.0825219 C130.574496,26.9854974 130.603654,26.8862493 130.641706,26.7696682 C130.533918,26.7634021 130.467718,26.7563779 130.401519,26.7561758 C129.551493,26.7536996 128.701417,26.7582982 127.851542,26.7456142 C127.664719,26.7428349 127.590435,26.8077706 127.536061,26.978271 Z M115.826995,37.429878 L118.734144,37.429878 L118.734144,22.1268308 L115.826995,22.1268308 L115.826995,37.429878 Z" id="形状结合" fill="#FFFFFF"></path>
                    </g>
                </g>
            </g>
        </g>
    </g>
</svg>