<?xml version="1.0" encoding="UTF-8"?>
<svg width="27px" height="27px" viewBox="0 0 27 27" version="1.1" xmlns="http://www.w3.org/2000/svg" xmlns:xlink="http://www.w3.org/1999/xlink">
    <g id="L4" stroke="none" stroke-width="1" fill="none" fill-rule="evenodd">
        <g id="移动端-L4官网-全" transform="translate(-198.000000, -8020.000000)" fill="#FFFFFF">
            <g id="编组-23" transform="translate(0.000000, 5662.000000)">
                <g id="编组-21" transform="translate(0.000000, 2014.000000)">
                    <g id="编组-5" transform="translate(198.000000, 344.000000)">
                        <rect id="矩形" stroke="#FFFFFF" opacity="0" x="0.5" y="0.5" width="26" height="26"></rect>
                        <path d="M21.2846834,10.0219919 C21.1963302,16.6856729 16.9350614,21.2499513 10.5739725,21.5365773 C7.95073869,21.6566906 6.05029675,20.809315 4.39639398,19.7586312 C6.33520338,20.0680763 8.73931033,19.293088 10.0250869,18.1924185 C8.12464497,18.0075571 6.99946151,17.0402157 6.47297744,15.4834843 C7.02213319,15.5784204 7.60066633,15.5532433 8.12238517,15.4427588 C6.40746783,14.8686961 5.1828532,13.8087766 5.11957883,11.5878117 C5.60081779,11.8069139 6.1024932,12.012875 6.76898656,12.0534777 C5.48556803,11.3234643 4.53655065,8.6548626 5.62348947,6.89022967 C7.52827907,8.97803844 9.81951887,10.681755 13.5817897,10.91223 C12.6372182,6.87441108 17.9879804,4.68481311 20.2273922,7.39863535 C21.1740515,7.21549337 21.9445939,6.85633269 22.685808,6.465412 C22.3807351,7.40310582 21.7932119,8.05839844 21.0770275,8.58262271 C21.8632166,8.47648584 22.5591119,8.28437836 23.153611,7.99062903 C22.7848462,8.75665181 21.9784663,9.44358162 21.2846834,10.0219919 Z" id="路径" fill-rule="nonzero"></path>
                    </g>
                </g>
            </g>
        </g>
    </g>
</svg>