<?xml version="1.0" encoding="UTF-8"?>
<svg width="220px" height="64px" viewBox="0 0 220 64" version="1.1" xmlns="http://www.w3.org/2000/svg" xmlns:xlink="http://www.w3.org/1999/xlink">

    <g id="L4" stroke="none" stroke-width="1" fill="none" fill-rule="evenodd">
        <g id="L4官网" transform="translate(-852.000000, -4592.000000)">
            <g id="编组-16" transform="translate(0.000000, 3456.000000)">
                <g id="编组-9" transform="translate(120.000000, 1019.000000)">
                    <g id="编组-33" transform="translate(732.000000, 117.000000)">
                        <rect id="矩形备份-9" fill-opacity="0" fill="#9D9D9D" x="0" y="0" width="220" height="64"></rect>
                        <path d="M92.1655063,35.2409018 C91.4575178,35.7792803 90.5997014,35.9803584 89.6660113,35.8491443 C89.0655315,35.7647566 88.5066196,35.6360466 87.9911952,35.3179442 C87.1181874,34.7791484 86.7063488,33.9305972 86.5183754,32.9823833 C86.3574462,32.1704753 86.4678763,31.3655786 86.6747973,30.5431533 C86.9690274,29.3737453 88.5126294,28.1638545 89.7574104,28.2570899 C89.8542351,28.2643518 89.9520614,28.2580081 90.0494703,28.2580081 C91.7904777,28.1477448 93.1351718,29.2735818 93.511202,30.9300346 C93.8671996,32.4978427 93.6986746,34.0751664 92.1655063,35.2409018 M94.7313596,26.85572 C92.8685701,25.3654551 90.7148059,24.9070404 88.3746542,25.4170392 C86.2528588,25.8794604 84.6505778,27.0537097 83.6481088,28.988283 C82.92977,30.3745449 82.8260174,31.8566298 83.0907827,33.3781958 C83.3992026,35.151339 84.2956654,36.5543783 85.7689025,37.5757114 C87.0551679,38.4674164 88.478073,38.9383515 90.0816061,38.8394401 C91.4005915,38.9261649 92.6339373,38.5812688 93.7899902,37.9222769 C95.1785893,37.1308189 96.1362352,35.9697577 96.7080015,34.488424 C97.1679186,33.2967296 97.1600724,32.064302 97.0002283,30.8175177 C96.7903024,29.1797621 95.9815662,27.8559354 94.7313596,26.85572 M105.734112,35.7640387 C103.980835,36.6009877 102.4172,35.368894 102.332395,33.7070992 C102.298674,33.0456866 102.395498,32.4319352 102.764517,31.848984 C103.241045,31.0960054 104.283245,30.7856657 104.834979,30.8611222 C105.891119,31.0056914 106.66413,31.5285445 106.920381,32.6289233 C106.985488,32.9085462 107.004352,33.1988532 107.044417,33.4842355 C107.085484,34.5286063 106.625567,35.3385111 105.734112,35.7640387 M108.848694,29.2106792 C108.074431,28.4950949 107.158937,28.0846753 106.131427,28.0002876 C104.671629,27.8803419 103.369755,28.2745684 102.322546,29.5307014 L102.322546,28.2105473 L98.9477894,28.2105473 L98.9477894,41.8912029 L102.35393,41.8912029 L102.35393,37.4748302 C102.655673,37.7271586 102.909837,37.9751465 103.197891,38.1740544 C104.110129,38.8037485 105.116855,38.9727743 106.219154,38.8633458 C107.286979,38.7573395 108.211822,38.380725 108.938424,37.6188986 C110.456735,36.0271347 110.773251,34.0868021 110.376437,32.0044877 C110.171102,30.9274804 109.675961,29.9752601 108.848694,29.2106792 M167.548172,35.8897272 C166.15373,36.3518145 164.717971,35.5493384 164.463222,34.0732633 C164.303127,33.1460003 164.425577,32.33476 165.03816,31.6407943 C166.098807,30.439167 168.072695,30.6774725 168.760066,32.0679914 C168.966904,32.4864241 169.046784,32.9677094 169.184759,33.4201977 C169.150203,33.4311322 169.115563,33.4420667 169.081007,33.4530012 C169.176579,34.7249934 168.418259,35.6013399 167.548172,35.8897272 M169.302702,28.1979267 C169.226995,28.1991788 169.09937,28.362779 169.090188,28.4597706 C169.062142,28.757423 169.080005,29.0593322 169.080005,29.3909567 C168.690787,29.086126 168.385789,28.7865538 168.027705,28.5782974 C167.032581,27.9995197 165.956158,27.8522794 164.827316,28.0814867 C163.135389,28.4250473 161.980254,29.4275163 161.354817,31.010182 C160.849075,32.2897699 160.837222,33.638554 161.08713,34.9705607 C161.333699,36.2848719 162.030085,37.3526141 163.14048,38.1189478 C164.082267,38.7690085 165.116204,38.9910375 166.26825,38.8660001 C167.064132,38.7795257 167.766028,38.5450598 168.398727,38.0788825 C168.614162,37.9202069 168.803303,37.7258064 169.079755,37.4809902 L169.079755,38.7297778 L172.495661,38.7297778 L172.495661,28.1861575 C171.410307,28.1861575 170.356254,28.1805651 169.302702,28.1979267 M146.039953,32.0096962 C145.159433,31.4674782 144.134928,31.1560534 143.168017,30.758488 C142.619956,30.5331203 142.026237,30.4016558 141.507641,30.1252882 C140.713095,29.7017638 140.512267,29.1051236 140.879867,28.4975489 C141.206567,27.9577515 141.777331,27.804418 142.374222,27.9120102 C142.978541,28.0209379 143.485869,28.3298587 143.612075,28.9839259 C143.672089,29.2951837 143.8215,29.3228122 144.066566,29.3214766 C145.040155,29.3164685 146.013744,29.3203915 146.987332,29.3179709 C147.093422,29.3177205 147.199345,29.2975209 147.319123,29.2851674 C147.380056,28.2174252 146.964795,27.3330656 146.267825,26.6406858 C145.287141,25.666346 144.001293,25.273288 142.64867,25.2500835 C141.789768,25.2353929 140.905408,25.3319671 140.071631,25.5375525 C138.821842,25.8458055 137.787488,26.5712392 137.367803,27.8327141 C136.76123,29.6556886 137.151366,31.2018782 138.715335,32.1501755 C139.517728,32.6366359 140.468362,32.8779463 141.350218,33.2342777 C142.063882,33.5226649 142.807262,33.7582159 143.478106,34.1256488 C144.1689,34.5040161 144.098368,35.4834476 143.454735,35.9428639 C143.100574,36.1956096 142.733725,36.1564624 142.352436,36.1878469 C141.395625,36.2666422 140.837297,35.6614881 140.707335,34.7886472 L137.077997,34.7886472 C137.115224,35.0800393 137.127828,35.3417998 137.184337,35.5937943 C137.540418,37.1822194 138.665671,38.0635741 140.100679,38.546195 C141.318332,38.9557799 142.607686,38.9765638 143.87492,38.7494433 C145.34991,38.4850118 146.56289,37.786038 147.183736,36.3551199 C147.864013,34.7873117 147.660013,33.007324 146.039953,32.0096962 M155.834643,32.3901504 C154.792025,32.3900669 153.749407,32.3889818 152.706789,32.3883975 C152.57449,32.388314 152.442191,32.3883975 152.269242,32.3883975 C152.518065,31.4156436 153.05853,30.8514731 153.986043,30.6644179 C154.773996,30.5055754 155.721124,30.8787676 156.175282,31.5501965 C156.214012,31.6073731 156.24523,31.67081 156.272107,31.7346642 C156.515921,32.3136088 156.464838,32.3902338 155.834643,32.3901504 M159.700367,31.7730601 C159.338861,30.2382225 158.399161,29.1230696 156.958811,28.4994687 C155.801172,27.9983177 154.576674,27.8590071 153.31161,28.0789493 C151.586879,28.3786883 150.201702,29.1832511 149.432196,30.7855322 C148.704926,32.2999198 148.650922,33.8969423 149.195393,35.4987225 C149.723004,37.0509218 150.809861,38.0583156 152.332011,38.5758266 C153.232814,38.8820763 154.166004,38.9663806 155.139425,38.8631287 C156.628188,38.7052879 157.846843,38.0952091 158.771184,36.9472527 C159.148383,36.4787382 159.38527,35.897206 159.68601,35.3670911 C159.649451,35.3256067 159.612975,35.2842058 159.576415,35.2427215 C158.771769,35.2427215 157.967039,35.2338737 157.16256,35.2458098 C156.607654,35.2539898 156.123781,35.2023222 155.610778,35.7167449 C154.673749,36.6566118 152.697357,36.3178924 152.348538,34.7426555 C152.249627,34.2960101 152.235854,34.2654602 152.694686,34.2652933 C154.905377,34.2644586 157.115984,34.2651264 159.326674,34.2649594 C159.81422,34.2649594 159.925568,34.1929252 159.904784,33.6961981 C159.87774,33.0525645 159.847107,32.3962436 159.700367,31.7730601 M119.047994,32.3561699 L115.040372,32.3561699 C115.112239,31.3521984 115.89727,30.6970461 116.969269,30.6477991 C118.071318,30.5972166 119.149827,31.3525323 119.047994,32.3561699 M122.405389,31.7869077 C121.747065,29.3773094 120.038945,28.2379504 117.618913,28.0014812 C116.562856,27.8983129 115.513895,28.0491423 114.536717,28.4916143 C113.348528,29.0296588 112.480696,29.8955717 111.969779,31.1114723 C111.564033,32.0772147 111.541663,33.0841911 111.591662,34.1052739 C111.649339,35.281276 112.057088,36.331907 112.8513,37.1828788 C114.333218,38.7708031 116.235572,39.1370674 118.287337,38.8099503 C119.62143,38.59727 120.754112,37.9512158 121.565352,36.8255458 C121.903737,36.3558627 122.181774,35.8591356 122.283106,35.2427966 C121.242325,35.2427966 120.241692,35.2561517 119.241644,35.2353678 C118.899335,35.2282729 118.633234,35.288204 118.43441,35.5885274 C117.969902,36.2900053 116.891726,36.3165486 116.193253,36.0635524 C115.465566,35.8000391 115.036199,35.1533172 115.000474,34.2584404 L122.58176,34.2584404 C122.529342,33.4002068 122.614814,32.5533249 122.405389,31.7869077 M133.490585,28.7616549 C132.892108,28.3217705 132.200146,28.1376367 131.448753,28.0615959 C130.713888,27.9872246 130.009154,28.0300445 129.353919,28.3259439 C128.777144,28.5865358 128.253707,28.9649866 127.689202,29.3017862 L127.689202,28.2085858 L124.303678,28.2085858 L124.303678,38.7286677 L127.694711,38.7286677 L127.694711,38.211574 C127.694711,36.5289118 127.690454,34.8462496 127.698718,33.1636708 C127.700137,32.8773703 127.735778,32.5876476 127.788531,32.3056875 C128.046619,30.9246842 129.45692,30.5660156 130.555796,30.947221 C131.435816,31.2525525 131.809008,31.9600402 131.800828,32.8948989 C131.785136,34.6886591 131.796154,36.4826696 131.79607,38.2765967 L131.79607,38.7354287 L135.266149,38.7354287 C135.219072,36.2983689 135.210391,33.9106396 135.110728,31.5267499 C135.062066,30.36235 134.420018,29.4447695 133.490585,28.7616549 M72.8779939,33.9988753 C73.0005272,34.2157291 72.9356713,34.4343358 72.8016193,34.624229 C72.7337585,34.7203858 72.6431941,34.8187964 72.5399423,34.8687947 C71.3157782,35.4614283 70.5872562,36.5130609 69.9136571,37.633055 C69.4771115,38.358906 68.9733729,39.0409355 68.3629602,39.640831 C68.0264945,39.9714538 67.6548047,40.1569231 67.1809482,40.1566727 C63.7293163,40.154586 60.2776009,40.1552537 56.825969,40.1595956 C56.3782385,40.1601784 56.0038777,39.9868122 55.6558097,39.728474 C54.810013,39.1007832 54.0438462,38.3874526 53.3710818,37.5769635 C52.8396313,36.9367522 52.5445666,36.2008849 52.4898106,35.3656888 C52.4619317,34.9404115 52.6014093,34.7294006 53.0643313,34.7344087 C54.4569369,34.7494332 55.8498764,34.7457606 57.2425655,34.7348261 C57.6133371,34.7319046 57.7707606,34.8636196 57.8250993,35.2484141 C57.942207,36.07735 58.4473646,36.5837596 59.2717931,36.7497805 C59.9068293,36.8776558 60.5486265,36.9306589 61.1981864,36.9044495 C61.5465882,36.8904266 61.7124421,36.7442715 61.7101884,36.3866046 C61.6975846,34.3673097 61.9241208,34.7440912 60.1892902,34.7034415 C59.9097507,34.6968474 59.6298774,34.7025234 59.2109439,34.7025234 C59.4285489,34.3789955 59.5605142,34.1806719 59.6946498,33.9836838 C61.8753746,30.780958 61.8395662,27.3814946 59.599411,24.2276819 C59.4793819,24.0588231 59.1882401,23.8953063 59.3374002,23.6748633 C59.4633557,23.4887262 59.7499901,23.6105083 59.9660927,23.6360499 C60.1261872,23.654914 60.2849463,23.6860482 60.4444565,23.7105882 C60.8021235,23.7657616 61.2052813,23.9493945 61.5066897,23.8436387 C61.9208655,23.6982347 61.6487549,23.2010902 61.7318905,22.8667113 C61.8683632,22.3170645 62.2862951,22.3704015 62.692124,22.3699007 C63.0914422,22.3693999 63.3557902,22.5216483 63.3794121,22.9577766 C63.3804972,22.9778927 63.3857557,22.998927 63.3819161,23.018125 C63.1416074,24.2077327 63.7641231,24.8694791 64.6968116,25.4986724 C65.9820754,26.365587 67.0082498,27.5238101 67.5580636,29.0140751 C68.2215628,30.8123426 67.7338504,32.3576139 66.1874104,33.4976407 C65.5498702,33.9676576 64.8599111,34.3481118 64.1126084,34.6078689 C63.7490986,34.7342418 63.6242282,34.945837 63.6140449,35.3237871 C63.5679697,37.0379173 63.5562005,37.0213068 65.2376942,36.7933516 C66.1223877,36.6734059 66.8448999,36.2594805 67.4672487,35.6655113 C68.8374845,34.3578777 70.5667227,34.0140667 72.3461261,33.7898676 C72.5529636,33.7638251 72.7642249,33.7974633 72.8779939,33.9988753 M54.1948426,32.466959 C55.5290195,30.3096891 56.8600246,28.1504159 58.183434,25.9865518 C58.3817576,25.6621892 58.5310011,25.7148585 58.6961873,25.9948988 C58.9341589,26.3983905 59.0660408,26.8451194 59.1840667,27.2913475 C59.6334666,28.9908705 59.9182646,30.6802103 58.9653765,32.3309037 C58.7335816,32.7323921 58.4761616,32.91903 58.0119876,32.8934048 C57.4499038,32.8624376 56.8848151,32.8860595 56.3210619,32.8860595 C55.6968767,32.8849744 55.0726081,32.8810513 54.4485065,32.8865603 C54.1147953,32.8895652 53.9887563,32.8001694 54.1948426,32.466959 M61.8892306,17.6360049 C53.9405944,17.6294993 47.5085161,24.0511439 47.5043406,31.9974429 C47.5001691,39.9603524 53.8910135,46.3520315 61.8691979,46.3639838 C69.7645805,46.3758203 76.2280434,39.8914066 76.2297131,31.9567098 C76.2312987,24.1443794 69.7204251,17.642437 61.8892306,17.6360049" id="形状结合" fill="#FFFFFF"></path>
                    </g>
                </g>
            </g>
        </g>
    </g>
</svg>