<?xml version="1.0" encoding="UTF-8"?>
<svg width="220px" height="64px" viewBox="0 0 220 64" version="1.1" xmlns="http://www.w3.org/2000/svg" xmlns:xlink="http://www.w3.org/1999/xlink">
    <g id="L4" stroke="none" stroke-width="1" fill="none" fill-rule="evenodd">
        <g id="L4官网" transform="translate(-120.000000, -4680.000000)">
            <g id="编组-16" transform="translate(0.000000, 3456.000000)">
                <g id="编组-9" transform="translate(120.000000, 1019.000000)">
                    <g id="编组-29" transform="translate(0.000000, 205.000000)">
                        <rect id="矩形备份-11" fill-opacity="0" fill="#9D9D9D" x="0" y="0" width="220" height="64"></rect>
                        <path d="M57.9864487,15.1943613 C61.2721676,14.364875 64.5401673,14.5178196 67.7608122,15.5811785 C68.3272047,15.7682145 68.3703111,15.8700739 68.1513599,16.4444452 C68.0046325,16.8295009 67.8289949,17.2058525 67.7131466,17.5998196 C67.5947078,18.0026981 67.3933721,18.0311939 67.0239632,17.9110971 C62.1524282,16.3279752 57.5698922,16.9680422 53.4400765,19.9742953 C49.169129,23.0831331 47.1196088,27.4005028 47.2916197,32.6619637 C47.5184461,39.6026032 52.8668451,45.5325233 59.6881131,46.6760848 C67.7222652,48.0231581 75.3577873,42.7623189 76.8343868,34.8462948 C77.9383651,28.927773 75.9700839,24.0167585 71.301957,20.1989456 C70.6821996,19.6921352 70.6659311,19.7124449 71.1163717,19.0645027 C71.3225775,18.7677321 71.5344825,18.4746919 71.7315697,18.1719112 C71.945858,17.8427073 72.1762075,17.8025023 72.4977435,18.0466334 C75.9786844,20.689073 78.2611446,24.1082558 79.170419,28.3916379 C81.0670982,37.3266711 75.7342424,46.1717613 66.9526719,48.6379416 C65.8839247,48.938028 64.7598439,49.0412346 63.661772,49.2377 C63.5131794,49.2643306 63.3668665,49.3032921 63.2195175,49.3364509 L61.148755,49.3364509 C60.1530606,49.1686884 59.1346733,49.0838228 58.165195,48.8199001 C51.1867338,46.9206304 46.728025,42.470833 45.230494,35.4049157 C43.3006562,26.2998404 48.9601254,17.4731947 57.9864487,15.1943613 Z M60.3691312,18.4735417 C67.5346283,17.4151566 74.4411765,22.4723804 75.6433875,29.6294842 C75.77395,30.4065382 75.8246207,31.1969594 75.9123877,31.9812669 C75.8499042,38.743471 70.9560907,44.4334047 64.2387545,45.4883703 C58.9410263,46.3203435 53.439061,43.7905399 50.6204657,39.2266558 C50.3053542,38.7164259 50.3237987,38.6515591 50.8609701,38.3669122 C51.2411556,38.1654729 51.6283874,37.9757428 51.9985216,37.7573097 C52.3225446,37.5661289 52.4990112,37.6447773 52.7037663,37.9593707 C54.6040722,40.8793074 57.280914,42.6942296 60.7419596,43.0946212 C65.3622136,43.6290984 69.1049012,41.9229783 71.6339794,38.0237194 C76.0069937,31.2814105 72.0564423,22.3793287 64.1388639,20.9369242 C57.9865731,19.8160556 51.852416,24.2368391 51.1085207,30.3875756 C50.9697722,31.5346603 51.0675904,32.7167689 51.1341151,33.8782569 C51.1569117,34.2767833 51.0611659,34.3957402 50.7120667,34.4642337 C50.2570668,34.5534514 49.7989583,34.6513733 49.3626101,34.8035926 C48.9356916,34.952496 48.8033675,34.7728171 48.7410913,34.3996778 C48.1746988,31.0089908 48.7285531,27.815391 50.5454441,24.8922421 C52.8124647,21.2447822 56.1193223,19.1012778 60.3691312,18.4735417 Z M60.7867757,22.1517252 C66.2839744,21.3535325 71.3994332,25.2128973 72.0922434,30.7188002 C72.2962732,32.3398474 72.1262311,33.940274 71.5416013,35.4882684 C71.3804706,35.9147726 71.200999,35.9792248 70.8267199,35.7460775 C70.4478814,35.5100289 70.055365,35.2866219 69.6455439,35.1119169 C69.2511623,34.94374 69.2196615,34.7283119 69.3444212,34.3463648 C70.4185567,31.0580554 69.2111646,27.6077863 66.3411732,25.7060298 C61.6594719,22.6036164 55.2727904,25.6213714 54.7057762,31.2039538 C54.2335752,35.8527036 58.0049658,39.7980739 62.6795172,39.5129088 C64.2478214,39.417163 65.6704343,38.8674535 66.8891211,37.8625369 C67.2426761,37.5709473 67.5115726,37.5768537 67.8259588,37.8895819 C68.1186882,38.180757 68.4236448,38.4625026 68.7452845,38.7209334 C69.098943,39.0049586 69.050552,39.2251533 68.7297413,39.5053445 C66.9340927,41.0734414 64.6527723,41.9261388 62.1952962,41.9261388 C57.0599421,41.9261388 52.773555,38.0667739 52.2638433,32.9842665 C51.7339254,27.7004235 55.4950575,22.9201787 60.7867757,22.1517252 Z M174.227503,34.7126133 C173.972077,34.8156126 173.757167,34.9225495 173.530548,34.9900068 C172.651324,35.2514426 172.242021,34.9490765 172.239637,34.0463302 C172.237461,33.2371536 172.239223,32.4279771 172.239223,31.6189042 C172.239223,31.0060895 172.239119,30.3932747 172.239119,29.7285459 L174.164294,29.7285459 L174.164294,27.9626365 L172.232487,27.9626365 L172.232487,25.8187176 L169.73491,25.8187176 L169.73491,27.9744493 C169.357937,27.9744493 169.029355,27.9565229 168.704606,27.9836716 C168.580986,27.99393 168.367423,28.1021104 168.363071,28.1756813 C168.332814,28.6812483 168.347217,29.1894057 168.347217,29.7404623 L169.764235,29.7404623 C169.764235,29.9712263 169.764131,30.1551536 169.764235,30.3389773 C169.76496,31.733509 169.75035,33.1281443 169.770452,34.5223651 C169.793352,36.1092174 170.659935,36.9536251 172.229068,37.0481275 C173.314084,37.1135123 174.250196,36.7551908 175.146725,36.2133565 L175.146725,36.1100464 C174.838556,35.6414721 174.530284,35.1728979 174.227503,34.7126133 M133.810342,30.7636059 C133.258664,30.4950202 132.659423,30.3190717 132.073032,30.1275801 C131.372554,29.8986813 130.652181,29.7268776 129.960925,29.474664 C129.520743,29.3140515 129.198378,28.979252 129.212159,28.4636338 C129.226666,27.9209705 129.539394,27.5510434 130.037708,27.3941612 C130.407739,27.2775876 130.822326,27.1668167 131.194326,27.2181091 C132.202558,27.3571685 133.198667,27.5837877 134.255394,27.7864704 C134.486676,27.2957213 134.770287,26.6937868 135.064571,26.0693665 C133.812933,25.4374855 132.160695,25.0417568 130.867712,25.0852777 C129.875852,25.1186436 128.935077,25.3313776 128.078545,25.8856464 C126.24549,27.0718999 126.071613,30.2360713 128.403397,31.3342469 C128.974245,31.6031434 129.593795,31.7710095 130.195005,31.9733813 C130.909472,32.2137821 131.641243,32.4092113 132.340581,32.6866048 C132.757967,32.8521912 133.027796,33.2065751 133.004792,33.698464 C132.981374,34.1959485 132.717762,34.59748 132.264627,34.7171623 C131.695748,34.8675164 131.064178,35.0100989 130.502966,34.9111408 C129.520432,34.7379901 128.570952,34.3782179 127.536297,34.0758518 C127.229786,34.5785173 126.858511,35.1872908 126.40403,35.9326368 C127.419516,36.2673327 128.339567,36.660989 129.300134,36.8666767 C130.816938,37.1913213 132.349182,37.2127709 133.786924,36.4787196 C134.956598,35.8815517 135.51439,34.8980846 135.518976,33.5953611 C135.523405,32.3075591 134.975457,31.3308274 133.810342,30.7636059 M119.720785,31.4418573 L116.280152,31.4418573 C116.423875,30.2183003 117.274293,29.4814512 118.42003,29.5837252 C119.260811,29.6587468 119.770523,30.3758042 119.720785,31.4418573 M119.417072,27.9292084 C116.876077,27.240025 113.871896,28.5925901 113.660406,32.0649305 C113.488084,34.8928517 115.142497,36.9012343 117.770948,37.061536 C119.241227,37.1511682 120.588922,36.787562 121.819318,35.8977684 C121.460064,35.355934 121.124124,34.8492273 120.837509,34.4169204 C120.184592,34.6455083 119.632189,34.8968929 119.052533,35.0304604 C117.548992,35.3768655 116.564696,34.7737912 116.253936,33.3437175 C116.311861,33.3239259 116.34419,33.3033053 116.37652,33.3032017 C117.859648,33.298746 119.342775,33.2951192 120.825903,33.2933577 C121.962936,33.2920106 122.004903,33.2959482 122.082204,32.1702094 C122.213803,30.2562256 121.405352,28.4684521 119.417072,27.9292084 M152.611951,31.4460125 C152.841575,30.1652567 153.611479,29.495554 154.733902,29.5810414 C155.586082,29.6459081 156.074758,30.3025545 156.079525,31.4460125 L152.611951,31.4460125 Z M155.491683,27.8638339 C152.646664,27.3070781 150.383477,28.9049142 150.046191,31.7788432 C149.70362,34.6980546 151.376789,37.2132476 154.75701,37.0698361 C156.00699,37.0167821 157.137703,36.6430211 158.16552,35.8976751 C157.80554,35.3571879 157.474575,34.8602215 157.14765,34.3694723 C155.697889,35.0444596 155.271177,35.1522255 154.353717,35.0840429 C153.368592,35.0107828 152.692154,34.3173509 152.638374,33.2896377 L158.264581,33.2896377 C158.32406,32.9078978 158.408511,32.5572443 158.428821,32.2028604 C158.546327,30.1575887 157.699536,28.2958299 155.491683,27.8638339 L155.491683,27.8638339 Z M165.292905,31.4404377 L161.91745,31.4404377 C161.925015,30.3602922 162.831906,29.5248995 163.928216,29.5761919 C164.855002,29.6196091 165.392899,30.3419513 165.292905,31.4404377 M165.030951,27.9369074 C162.412862,27.1979859 159.36371,28.706708 159.27356,32.2121034 C159.201129,35.0251032 160.810363,36.9262381 163.424722,37.064054 C164.876348,37.1405263 166.203941,36.7760912 167.422006,35.9028769 C167.072078,35.3675707 166.745257,34.8677029 166.404448,34.3464892 C165.516105,34.8596205 164.606001,35.1781515 163.587407,35.0847889 C162.648082,34.9986799 161.993612,34.3466964 161.893099,33.2930779 L162.487159,33.2930779 C164.004999,33.2930779 165.52284,33.2853063 167.040577,33.2989843 C167.381697,33.3020929 167.603032,33.2627169 167.604379,32.8461604 C167.606037,32.3327183 167.700332,31.8168928 167.673598,31.3063521 C167.586038,29.633598 166.600291,28.3798873 165.030951,27.9369074 M99.667268,34.3714722 C99.6468547,34.7694805 98.9810896,35.1941195 98.3025792,35.2785706 C97.7166023,35.3515198 97.2413963,35.1397184 97.0805765,34.7338349 C96.8964419,34.2691982 97.0846177,33.6670565 97.6180587,33.4325621 C98.2437224,33.1576556 98.924927,33.0085449 99.6730708,32.7766411 C99.6730708,33.4185733 99.6917226,33.8961626 99.667268,34.3714722 M102.142774,34.349919 C102.141013,33.1790015 102.151789,32.0078767 102.139873,30.8370628 C102.121843,29.0585117 101.165628,28.0069656 99.3907035,27.8489435 C98.8128091,27.7974439 98.2187498,27.7924701 97.6443785,27.8642794 C96.6380111,27.9899717 95.6825217,28.3082955 94.7709676,28.8173856 C95.0763387,29.4434638 95.3606748,30.0264356 95.6357886,30.5904448 C96.1801098,30.3760529 96.6617403,30.1204199 97.1751825,30.0017738 C97.7493466,29.8691389 98.3527318,29.8101785 98.9426462,29.8154632 C99.3658345,29.8192972 99.6081004,30.1635262 99.6570095,30.5774922 C99.6924479,30.8770606 99.6639521,31.1841933 99.6639521,31.516195 C99.4252093,31.5375409 99.2385878,31.5488356 99.0534171,31.5716323 C97.8693397,31.7176343 96.6969715,31.9131671 95.6838688,32.6045266 C94.7611236,33.2343351 94.4132678,34.1316932 94.6148107,35.20873 C94.8041263,36.2205893 95.5071949,36.7927845 96.4750153,36.9823074 C97.5041792,37.1838503 98.5020496,37.0464488 99.3713264,36.3878336 C99.5727656,36.2351998 99.7636356,36.0687845 99.9765767,35.8947012 C100.695707,36.9224144 101.753263,36.8955766 102.838175,36.9213782 L102.838175,35.2471734 C102.216241,35.0655258 102.143707,34.9736139 102.142774,34.349919 M112.179568,30.1192593 C112.090247,28.9746615 111.362724,28.1106695 110.357911,27.8680927 C109.172901,27.581995 108.107573,27.8440526 107.154363,28.5910565 C107.027531,28.6904291 106.900803,28.7898016 106.749723,28.9083441 C106.693353,28.5604883 106.647864,28.2794681 106.602167,27.9975153 L104.356389,27.9975153 L104.356389,36.8240574 L106.782986,36.8240574 L106.782986,36.2289619 C106.782986,34.6107124 106.782986,32.9924629 106.782986,31.3742135 C106.782986,30.5039005 107.040069,30.1246476 107.85909,29.786325 C109.014775,29.308943 109.777633,29.8019718 109.781674,31.0398285 C109.787477,32.7785892 109.783229,34.5172462 109.783229,36.2560069 L109.783229,36.8149387 L112.270651,36.8149387 C112.270651,35.4785384 112.280806,34.1897002 112.267232,32.9011728 C112.257388,31.9734538 112.251688,31.0433516 112.179568,30.1192593 M92.8874587,25.2873905 C92.1867734,25.2873905 91.5167599,25.3103943 90.8492333,25.2788936 C90.4409664,25.2595164 90.3531994,25.4227195 90.3672919,25.7904705 C90.3922646,26.4434902 90.3744417,27.0981678 90.3742345,27.7522237 C90.3736128,29.5764717 90.3823169,31.400927 90.3668774,33.2250714 C90.3616964,33.840373 90.155076,34.3892536 89.5494112,34.6664398 C88.9402232,34.9452839 88.3397394,34.8740963 87.7933458,34.4860356 C87.5759489,34.3316403 87.3871514,34.1372472 87.1787695,33.9552887 C86.6269876,34.4556746 86.0932357,34.939792 85.5308844,35.4498147 C86.7229406,36.8834115 88.2281396,37.2642187 89.9036915,36.9839239 C91.8198513,36.6634241 92.9167834,35.2859899 92.9246586,33.3189521 C92.9347099,30.7890449 92.9276637,28.2591377 92.9255912,25.7291269 C92.9254876,25.597839 92.90352,25.4665512 92.8874587,25.2873905 M141.931784,34.7138568 C141.656671,34.8186176 141.424663,34.9275233 141.181257,34.9959132 C140.338611,35.2325836 139.949722,34.9649305 139.927132,34.1082955 C139.904439,33.2482411 139.917599,32.3871504 139.916148,31.5265778 C139.915112,30.9469219 139.915941,30.3672659 139.915941,29.7211888 L141.868679,29.7211888 L141.868679,27.9643981 L139.899465,27.9643981 L139.899465,25.8140547 L137.440021,25.8140547 L137.440021,27.9749674 C137.047815,27.9749674 136.702757,27.9556939 136.362155,27.9859512 C136.248897,27.9960025 136.059685,28.1281193 136.054504,28.213503 C136.024972,28.7043558 136.040101,29.1980063 136.040101,29.7336233 L137.459605,29.7336233 C137.459605,29.9999294 137.459605,30.1882088 137.459605,30.3763845 C137.459812,31.770709 137.43515,33.1655515 137.46862,34.5591506 C137.49266,35.5598188 137.815336,36.4625651 138.852479,36.8268966 C140.265766,37.3232413 141.588488,37.0506144 142.823961,36.1705611 C142.66739,35.9068456 142.530507,35.6701751 142.387613,35.4372351 C142.236948,35.1915497 142.080584,34.9493873 141.931784,34.7138568 M148.249071,27.7843358 C147.403316,27.9013239 146.822106,28.4657476 146.31343,29.2333721 C146.240378,28.7509127 146.185148,28.3861667 146.126809,28.0005929 L143.908697,28.0005929 L143.908697,36.8244408 L146.335398,36.8244408 C146.335398,36.6019664 146.335398,36.4160703 146.335398,36.2300706 C146.335398,34.8359534 146.334776,33.4419398 146.335605,32.0478226 C146.336331,30.9357619 147.284256,29.9823449 148.40243,29.9917744 C148.775362,29.994883 149.14788,30.0572629 149.585057,30.0986077 C149.694688,29.3704628 149.804837,28.6393128 149.93571,27.7711759 C149.299788,27.7711759 148.765415,27.7129409 148.249071,27.7843358" id="形状结合" fill="#FFFFFF"></path>
                    </g>
                </g>
            </g>
        </g>
    </g>
</svg>