<?xml version="1.0" encoding="UTF-8"?>
<svg width="32px" height="32px" viewBox="0 0 32 32" version="1.1" xmlns="http://www.w3.org/2000/svg" xmlns:xlink="http://www.w3.org/1999/xlink">
    <g id="L4" stroke="none" stroke-width="1" fill="none" fill-rule="evenodd">
        <g id="移动端-L4官网-全" transform="translate(-216.000000, -6944.000000)">
            <g id="编组-23" transform="translate(0.000000, 5662.000000)">
                <g id="编组-15" transform="translate(15.000000, 1266.000000)">
                    <g id="编组-10" transform="translate(201.000000, 16.000000)">
                        <rect id="矩形" fill-opacity="0" fill="#000000" x="0" y="0" width="32" height="32"></rect>
                        <path d="M21.603747,16.3155192 C21.6138429,15.5280408 21.8230257,14.7558477 22.2118585,14.0708378 C22.6005969,13.3859222 23.1562475,12.8103629 23.8271987,12.3979416 C23.4010018,11.7891697 22.8387464,11.2882443 22.1849676,10.9347943 C21.5312832,10.5814386 20.8041913,10.3852767 20.0614367,10.3620656 C18.4769502,10.1957195 16.9409617,11.3101345 16.1335746,11.3101345 C15.3105248,11.3101345 14.067411,10.3785775 12.7288109,10.4061289 C11.8629244,10.4340577 11.0191167,10.6858885 10.2794758,11.1369005 C9.53983487,11.588007 8.92964763,12.2230093 8.50845143,12.979917 C6.68359813,16.1393603 8.04470158,20.78252 9.79279791,23.336305 C10.667365,24.5868728 11.6894074,25.9836892 13.0268752,25.9341534 C14.335565,25.8798998 14.824413,25.0995923 16.4041818,25.0995923 C17.9692314,25.0995923 18.4278862,25.9341534 19.7924335,25.9026391 C21.1967983,25.8798998 22.0815556,24.6465989 22.9254577,23.3842369 C23.5538552,22.4931578 24.0373251,21.5083852 24.3581286,20.4663398 C23.5422497,20.1212873 22.8460116,19.5436521 22.3562201,18.8055209 C21.8663342,18.0673896 21.6046906,17.2014087 21.603747,16.3155192 Z M19.0262791,8.68247027 C19.7920561,7.76327372 20.1692834,6.58182026 20.0779487,5.38895941 C18.9080536,5.51183661 17.8275117,6.07093116 17.0514502,6.95484875 C16.6719584,7.38670695 16.3813482,7.88904758 16.1962256,8.43328138 C16.0111031,8.97751519 15.9349594,9.5528858 15.9723236,10.1264637 C16.5574127,10.1325023 17.1362744,10.0056906 17.6653172,9.75555817 C18.1942657,9.50542575 18.6596195,9.13857744 19.0262791,8.68247027 Z" id="形状结合" fill="#FFFFFF" fill-rule="nonzero"></path>
                    </g>
                </g>
            </g>
        </g>
    </g>
</svg>