<?xml version="1.0" encoding="UTF-8"?>
<svg width="122px" height="30px" viewBox="0 0 122 30" version="1.1" xmlns="http://www.w3.org/2000/svg" xmlns:xlink="http://www.w3.org/1999/xlink">
    <g id="L4" stroke="none" stroke-width="1" fill="none" fill-rule="evenodd">
        <g id="移动端-L4官网-全" transform="translate(-20.000000, -58.000000)">
            <g id="编组" transform="translate(0.000000, 44.000000)">
                <g id="logo" transform="translate(20.000000, 14.000000)">
                    <rect id="矩形" fill="#D8D8D8" opacity="0" x="3.40711779e-05" y="0" width="122" height="30"></rect>
                    <path d="M18.5629757,2.17523241 L18.7620015,2.182192 C20.6771517,2.29959854 22.3280911,3.84126024 22.5666814,5.83484568 C22.9089172,8.69503892 20.7676692,10.4367214 18.5745227,10.5457202 L18.4057463,10.5508304 C18.1244374,10.554027 17.8433003,10.5301712 17.5674588,10.4781795 C17.3436555,10.4359917 17.1222785,10.4093607 16.9043286,10.3975721 L16.6875693,10.3907135 L16.4732943,10.3935728 C15.3011601,10.4358681 14.2530757,10.9134672 13.4959161,11.7072014 C12.9690655,12.259669 12.5833423,12.9645373 12.3943992,13.782194 C11.9857538,15.5506212 12.7963394,17.2527188 14.1466661,18.2039446 C14.8020798,18.6656594 15.5846343,18.9504442 16.4166543,18.9800681 L16.5949532,18.9825018 C16.8968639,18.9795654 17.1991835,18.9440202 17.5035431,18.8723384 C18.2131451,18.7052385 18.9165341,18.548671 19.628154,18.5336148 L19.8954336,18.5349033 C20.2523885,18.5460874 20.6118493,18.5967423 20.9756246,18.7032406 C23.1027303,19.3261191 24.5568412,21.5534744 24.2443264,23.7379196 C23.9146079,26.0426949 22.0133149,27.720505 19.7673784,27.8206287 L19.6065732,27.8248734 C18.2365414,27.8352465 16.7082047,27.2082263 15.776885,25.9134714 C15.1703614,25.0705181 14.8169686,23.9445118 14.9250512,22.5271265 C15.0642758,21.0934956 14.7129103,19.8175426 13.6393314,18.8121052 C12.8703377,18.0918502 11.9796466,17.7104447 10.9744332,17.6445238 L10.720737,17.6346311 L10.4623162,17.6377455 C10.3753838,17.6409615 10.2876645,17.6463413 10.1991623,17.6538714 C9.56433458,17.7079064 8.89635274,17.7583088 8.28488105,17.6232213 C6.9343341,17.3248935 5.87237627,15.7015724 6.05990793,14.3852067 C6.28415629,12.8105678 7.46527964,11.6830358 8.95566229,11.6506046 L9.13593981,11.6519655 C9.29901286,11.6580652 9.46080438,11.660948 9.62107994,11.6597737 L9.86031418,11.6548134 C11.0505502,11.6139177 12.1485991,11.3199036 13.0507486,10.3991703 C13.9608354,9.47035823 14.4087011,8.37274348 14.2743756,7.06057791 C14.0113072,4.49118995 15.4584683,2.59122325 17.9574472,2.21751886 C18.1608465,2.1871061 18.363113,2.17336937 18.5629757,2.17523241 Z M3.72639125,4.65752091 L3.9224757,4.66629871 C4.42516878,4.70116971 4.8932434,4.83004642 5.31110665,5.0374863 C6.50893963,5.63228867 7.29409144,6.87226062 7.29971322,8.39410775 C7.33138624,9.42769781 6.93957496,10.2902148 6.14934436,10.9350025 C4.94078169,11.9212929 4.34906801,13.4061909 4.4070427,14.8798538 L4.42056678,15.1007434 C4.51284391,16.2042068 4.97151414,17.287016 5.81043158,18.1340565 C5.91965286,18.2443345 6.01720241,18.3599799 6.10322248,18.4799717 C6.88451918,19.5698192 6.71475616,21.0182583 5.70033934,22.0600868 C5.17439076,22.6002396 4.44303939,22.8837889 3.70502011,22.9002713 C3.4589555,22.9057394 3.21221538,22.8815569 2.97209734,22.8273165 L2.79339921,22.7810201 C2.43886256,22.6770752 2.10336048,22.5052736 1.81173483,22.2643074 C0.631743716,21.2892931 0.405361332,19.5514315 1.30542214,18.3413194 C1.60996171,17.9318566 1.96280833,17.5536114 2.2307758,17.1223529 C2.45917516,16.7548493 2.63175619,16.3694381 2.74972059,15.9752789 C2.94205401,15.3328255 2.98923295,14.6665468 2.89628497,14.016746 C2.74935667,12.9906777 2.2535449,12.0063024 1.42926595,11.2192539 C1.05895177,10.8657148 0.73605762,10.4900772 0.491343939,10.0763465 C0.210311514,9.60110989 0.0325433712,9.07621296 0.00424182543,8.47699929 C-0.0690071768,6.92753415 0.821001694,5.57231622 2.13558258,4.97759629 C2.56132036,4.78501906 3.03110901,4.67226961 3.52709124,4.65831255 L3.72639125,4.65752091 Z" id="形状结合" fill="#FFFFFF"></path>
                    <path d="M35.2390534,8.44390574 C34.9105408,8.44390574 34.6203597,8.55675393 34.4041359,8.78378891 C34.1910396,9.00754004 34.0908557,9.30308246 34.0908557,9.64233158 L34.0908557,20.3576684 C34.0908557,20.6969175 34.1910396,20.99246 34.4041359,21.2162111 C34.6203597,21.4432461 34.9105408,21.5560943 35.2390534,21.5560943 C35.5769148,21.5560943 35.8726269,21.4452022 36.0907137,21.2162111 L36.1751648,21.1160042 C36.3303894,20.9071273 36.4039938,20.6484534 36.4039938,20.3576684 L36.4031126,16.6399048 L38.0333243,15.3075372 L38.3647083,15.5159347 C39.2883126,16.1155123 40.027853,16.7655445 40.5851938,17.4643642 C41.2629889,18.314215 41.7725855,19.37281 42.1117251,20.6445835 C42.2805989,21.2083718 42.6777746,21.5393515 43.2253279,21.5393515 C43.5232757,21.5393515 43.7909337,21.4410282 43.9991469,21.2437736 C44.2171075,21.0372846 44.3232975,20.7578372 44.3232975,20.441382 L44.3024719,20.241861 C44.0613094,18.8160031 43.5093903,17.5570309 42.6461182,16.4496612 L42.4435217,16.1990634 C41.7488197,15.3698143 40.8603643,14.6012858 39.7796616,13.8920189 L39.7243384,13.8570895 L43.6566758,10.4257761 C43.9034171,10.1998109 44.0386713,9.92930232 44.0386713,9.62558886 C44.0386713,9.32869911 43.9268784,9.06039607 43.7163865,8.84990416 C43.4972221,8.63073975 43.2248058,8.5108766 42.9239591,8.5108766 L42.7982757,8.51886687 C42.5913052,8.54533952 42.3971724,8.63678179 42.2208156,8.78107371 L36.4031126,13.796287 L36.4039938,9.64233158 C36.4039938,9.30308246 36.30381,9.00754004 36.0907137,8.78378891 C35.8726269,8.55479777 35.5769148,8.44390574 35.2390534,8.44390574 Z M51.3871123,8.44390574 C52.6014864,8.44390574 53.7048587,8.71368632 54.6888653,9.25428256 C55.6788032,9.79813733 56.4610434,10.5711747 57.0282106,11.565242 C57.5945651,12.5578847 57.8762357,13.7057681 57.8762357,15 C57.8762357,16.2829003 57.5946073,17.4275833 57.0288977,18.4251787 C56.4617787,19.4252595 55.6793258,20.2015756 54.6888653,20.7457174 C53.7048587,21.2863137 52.6014864,21.5560943 51.3871123,21.5560943 C50.1727381,21.5560943 49.0693659,21.2863137 48.0853592,20.7457174 C47.0948987,20.2015756 46.3124458,19.4252595 45.7453268,18.4251787 C45.1796172,17.4275833 44.8979889,16.2829003 44.8979889,15 C44.8979889,13.7057681 45.1796595,12.5578847 45.7460139,11.565242 C46.3131811,10.5711747 47.0954213,9.79813733 48.0853592,9.25428256 C49.0693659,8.71368632 50.1727381,8.44390574 51.3871123,8.44390574 Z M51.3536268,10.572874 C50.547754,10.572874 49.8347667,10.7467733 49.2062659,11.0931911 C48.5878597,11.4340449 48.1051018,11.9289324 47.7508907,12.5881586 C47.3926339,13.2549143 47.2111269,14.05657 47.2111269,15 C47.2111269,15.9533109 47.3948832,16.7563007 47.7570098,17.4160655 C48.1167423,18.0714685 48.6031116,18.5651334 49.2230087,18.9068089 C49.8512309,19.2530732 50.5698205,19.427126 51.3871123,19.427126 C52.204404,19.427126 52.9229936,19.2530732 53.5512159,18.9068089 C54.1711129,18.5651334 54.6574822,18.0714685 55.0172147,17.4160655 C55.3793413,16.7563007 55.5630976,15.9533109 55.5630976,15 C55.5630976,14.0369589 55.3744498,13.2270312 55.0025954,12.5626513 C54.6332342,11.9027261 54.137988,11.4123352 53.5096593,11.0811231 C52.8673806,10.7425577 52.1512157,10.572874 51.3536268,10.572874 Z M64.5382253,8.44390574 C63.4663244,8.44390574 62.5206261,8.64524796 61.7066551,9.05223347 C60.8782466,9.46643773 60.2343883,10.065892 59.7858139,10.8429997 C59.341141,11.6133486 59.1206356,12.5108988 59.1206356,13.5266412 L59.1206356,20.3576684 C59.1206356,20.6969175 59.2208195,20.99246 59.4339158,21.2162111 C59.6501396,21.4432461 59.9403206,21.5560943 60.2688333,21.5560943 C60.6066946,21.5560943 60.9024067,21.4452022 61.1204935,21.2162111 C61.3335898,20.99246 61.4337737,20.6969175 61.4337737,20.3576684 L61.4337737,13.476413 C61.4337737,12.5556219 61.7054323,11.8590614 62.2466639,11.3502111 C62.7950188,10.8346637 63.5494493,10.572874 64.5382253,10.572874 C65.549785,10.572874 66.3066216,10.8299128 66.8366943,11.332087 C67.3606334,11.8284503 67.6259342,12.5312648 67.6259342,13.476413 L67.6259342,20.3576684 C67.6259342,20.7016638 67.7326573,21.001505 67.9565904,21.2254381 C68.1769441,21.4457917 68.4658317,21.5560943 68.7908746,21.5560943 C69.1323986,21.5560943 69.429528,21.4426448 69.643362,21.2063019 C69.8453688,20.9830313 69.9390723,20.6920573 69.9390723,20.3576684 L69.9390723,13.5266412 C69.9390723,12.5108988 69.7185669,11.6133486 69.273894,10.8429997 C68.8256834,10.0665223 68.185211,9.46726836 67.3628648,9.05295655 C66.5539438,8.64540857 65.6105442,8.44390574 64.5382253,8.44390574 Z M77.3544841,8.44390574 C76.2825832,8.44390574 75.3368849,8.64524796 74.5229139,9.05223347 C73.6945053,9.46643773 73.050647,10.065892 72.6020727,10.8429997 C72.1573998,11.6133486 71.9368943,12.5108988 71.9368943,13.5266412 L71.9368943,20.3576684 C71.9368943,20.6969175 72.0370782,20.99246 72.2501745,21.2162111 C72.4663983,21.4432461 72.7565794,21.5560943 73.085092,21.5560943 C73.4229534,21.5560943 73.7186655,21.4452022 73.9367523,21.2162111 C74.1498486,20.99246 74.2500324,20.6969175 74.2500324,20.3576684 L74.2500324,13.476413 C74.2500324,12.5556219 74.521691,11.8590614 75.0629226,11.3502111 C75.6112776,10.8346637 76.3657081,10.572874 77.3544841,10.572874 C78.3660437,10.572874 79.1228804,10.8299128 79.6529531,11.332087 C80.1768921,11.8284503 80.442193,12.5312648 80.442193,13.476413 L80.442193,20.3576684 C80.442193,20.7016638 80.5489161,21.001505 80.7728492,21.2254381 C80.9932028,21.4457917 81.2820904,21.5560943 81.6071334,21.5560943 C81.9486573,21.5560943 82.2457867,21.4426448 82.4596208,21.2063019 C82.6616276,20.9830313 82.7553311,20.6920573 82.7553311,20.3576684 L82.7553311,13.5266412 C82.7553311,12.5108988 82.5348257,11.6133486 82.0901527,10.8429997 C81.6419422,10.0665223 81.0014697,9.46726836 80.1791236,9.05295655 C79.3702026,8.64540857 78.426803,8.44390574 77.3544841,8.44390574 Z M92.6988926,8.61133288 L87.5086513,8.61133288 C86.7112233,8.61133288 86.0581596,8.83484132 85.5780054,9.293496 C85.0935804,9.75623032 84.8536094,10.386602 84.8536094,11.1491758 L84.8536094,18.8173388 C84.8536094,19.6026651 85.0964136,20.245382 85.5892148,20.7091949 C86.074903,21.1663133 86.735016,21.3886671 87.5421368,21.3886671 L93.0672323,21.3886671 C93.3760254,21.3886671 93.6468433,21.312648 93.8648252,21.1465666 C94.1184918,20.9532969 94.2489154,20.6676069 94.2489154,20.3409257 C94.2489154,19.6728047 93.7713285,19.2931843 93.0672323,19.2931843 L87.525394,19.2931843 C87.4025186,19.2931843 87.3310232,19.2634719 87.2725722,19.1989742 L87.2351436,19.149451 C87.1904373,19.0778484 87.1667475,18.9828287 87.1667475,18.8508242 L87.1658663,15.9296612 L91.4264464,15.9305424 C91.7352394,15.9305424 92.0060574,15.8545233 92.2240392,15.6884419 C92.4777058,15.4951721 92.6081295,15.2094822 92.6081295,14.882801 L92.6026236,14.7596388 C92.5478614,14.1607917 92.089057,13.8183169 91.4264464,13.8183169 L87.1658663,13.8183169 L87.1667475,11.1491758 C87.1667475,10.9841701 87.2037628,10.8769533 87.2725722,10.8010258 C87.3310232,10.7365281 87.4025186,10.7068157 87.525394,10.7068157 L92.6988926,10.7068157 C93.0213696,10.7068157 93.2977832,10.6305637 93.5147184,10.4570155 C93.7551476,10.2646721 93.8805757,9.9887303 93.8805757,9.675817 C93.8805757,9.00099312 93.4056773,8.61133288 92.6988926,8.61133288 Z M101.178789,8.44390574 C99.9406757,8.44390574 98.8378902,8.71428565 97.8792478,9.25771992 C96.9141141,9.80483388 96.1642909,10.585514 95.6375036,11.5900852 C95.1161149,12.5843613 94.8570922,13.7288801 94.8570922,15.0167427 C94.8570922,16.2939598 95.1163695,17.4305588 95.6381238,18.4194653 C96.1649847,19.4180505 96.914626,20.1954563 97.8792478,20.7422801 C98.8381161,21.2858424 99.9464524,21.5560943 101.195531,21.5560943 C102.264263,21.5560943 103.253103,21.3798358 104.158869,21.0259272 C105.081652,20.6653694 105.806969,20.1704105 106.325817,19.53767 C106.50069,19.3239369 106.596378,19.0793991 106.596378,18.8173388 C106.596378,18.4930987 106.443045,18.2083365 106.177348,17.9805961 C105.992351,17.8186871 105.756421,17.7361119 105.498409,17.7361119 C105.150825,17.7361119 104.838167,17.8924409 104.576923,18.1711011 C104.246575,18.5698558 103.816205,18.8670732 103.254762,19.0867681 C102.678159,19.3123954 101.992325,19.427126 101.195531,19.427126 C100.35953,19.427126 99.6452548,19.2491752 99.043306,18.8968149 C98.4476495,18.5481379 97.9949052,18.054454 97.6774166,17.4048235 C97.3519365,16.738841 97.186973,15.9444787 97.186973,15.0167427 C97.186973,14.0772652 97.352203,13.2739936 97.678099,12.6021464 C97.9960489,11.9466804 98.4464993,11.4504623 99.0365602,11.1022297 C99.6323804,10.7505981 100.343277,10.572874 101.178789,10.572874 C101.918174,10.572874 102.560702,10.684178 103.108752,10.9033981 C103.638587,11.1153317 104.047385,11.4113581 104.344933,11.7925917 C104.606479,12.0954399 104.930117,12.2471454 105.297496,12.2471454 C105.524194,12.2471454 105.73793,12.1830246 105.92563,12.0578912 C106.231994,11.8393978 106.395466,11.5358069 106.395466,11.1826612 C106.395466,10.9106955 106.305184,10.6624213 106.127975,10.4630609 C105.630332,9.83041894 104.920721,9.32400067 104.028869,8.96726005 C103.155567,8.61793908 102.204385,8.44390574 101.178789,8.44390574 Z M117.192906,8.61133288 L108.252296,8.61133288 C107.545512,8.61133288 107.070613,9.00099312 107.070613,9.675817 C107.070613,10.0070062 107.205041,10.2950645 107.467818,10.482763 L107.579849,10.5529176 C107.773241,10.6583397 107.999571,10.7068157 108.252296,10.7068157 L111.556779,10.7059345 L111.557661,20.3576684 C111.557661,20.6920573 111.651364,20.9830313 111.853371,21.2063019 C112.067205,21.4426448 112.364334,21.5560943 112.705858,21.5560943 C113.040245,21.5560943 113.33472,21.4476037 113.556885,21.2254381 L113.645711,21.1249119 C113.809133,20.914935 113.887541,20.6525216 113.887541,20.3576684 L113.887541,10.7059345 L117.192906,10.7068157 C117.515383,10.7068157 117.791796,10.6305637 118.008731,10.4570155 C118.249161,10.2646721 118.374589,9.9887303 118.374589,9.675817 C118.374589,9.00099312 117.89969,8.61133288 117.192906,8.61133288 Z" id="形状结合" fill="#FFFFFF" fill-rule="nonzero"></path>
                </g>
            </g>
        </g>
    </g>
</svg>