<?xml version="1.0" encoding="UTF-8"?>
<svg width="32px" height="32px" viewBox="0 0 32 32" version="1.1" xmlns="http://www.w3.org/2000/svg" xmlns:xlink="http://www.w3.org/1999/xlink">
    <title>编组 10</title>
    <g id="L4" stroke="none" stroke-width="1" fill="none" fill-rule="evenodd">
        <g id="移动端-L4官网-全" transform="translate(-312.000000, -6944.000000)">
            <g id="编组-23" transform="translate(0.000000, 5662.000000)">
                <g id="编组-15" transform="translate(15.000000, 1266.000000)">
                    <g id="编组-10" transform="translate(297.000000, 16.000000)">
                        <rect id="矩形" fill-opacity="0" fill="#000000" x="0" y="0" width="32" height="32"></rect>
                        <path d="M20.3384402,6.62816366 L20.4258882,6.67116674 C20.66541,6.80945474 20.716027,6.99835967 20.577739,7.23788151 L19.8411825,8.51282615 C20.8841662,9.51908729 21.5328643,10.9313087 21.5328643,12.4950779 L21.5328643,13.1100647 L10.4671357,13.1100647 L10.4671357,12.4950779 C10.4671357,10.9318071 11.1154204,9.51998738 12.1578205,8.51378828 L11.4217569,7.23788151 C11.3007549,7.0282999 11.3243833,6.85747186 11.4926419,6.72539741 L11.5736077,6.67116674 C11.8131296,6.53287874 12.0020345,6.58349566 12.1403225,6.8230175 L12.8061208,7.97655582 C13.708351,7.33766911 14.8103189,6.96221359 16,6.96221359 C17.1892402,6.96221359 18.2908321,7.33739084 19.1928759,7.97584553 L19.8591734,6.8230175 C19.9801754,6.61343589 20.139931,6.54848461 20.3384402,6.62816366 Z M14.2019199,10.0820111 C13.8199553,10.0820111 13.5103119,10.3916546 13.5103119,10.7736191 C13.5103119,11.1555837 13.8199553,11.4652272 14.2019199,11.4652272 C14.5838845,11.4652272 14.893528,11.1555837 14.893528,10.7736191 C14.893528,10.3916546 14.5838845,10.0820111 14.2019199,10.0820111 Z M17.7980801,10.0820111 C17.4161155,10.0820111 17.106472,10.3916546 17.106472,10.7736191 C17.106472,11.1555837 17.4161155,11.4652272 17.7980801,11.4652272 C18.1800447,11.4652272 18.4896881,11.1555837 18.4896881,10.7736191 C18.4896881,10.3916546 18.1800447,10.0820111 17.7980801,10.0820111 Z M20.8412563,13.7245473 C21.3023283,13.7245473 21.5328643,13.9550833 21.5328643,14.4161554 L21.5328643,22.2542118 C21.5328643,22.7152838 21.3023283,22.9458198 20.8412563,22.9458198 L19.6881969,22.9452414 L19.6884082,24.7897719 C19.6884082,25.1997631 19.4834126,25.4047586 19.0734215,25.4047586 L18.4589388,25.4047586 C18.0489476,25.4047586 17.8439521,25.1997631 17.8439521,24.7897719 L17.8431969,22.9452414 L14.1551969,22.9452414 L14.1555439,24.7897719 C14.1555439,25.1997631 13.9505483,25.4047586 13.5405571,25.4047586 L12.9260745,25.4047586 C12.5160833,25.4047586 12.3110877,25.1997631 12.3110877,24.7897719 L12.3101969,22.9452414 L11.1587437,22.9458198 C10.6976717,22.9458198 10.4671357,22.7152838 10.4671357,22.2542118 L10.4671357,14.4161554 C10.4671357,13.9550833 10.6976717,13.7245473 11.1587437,13.7245473 L20.8412563,13.7245473 Z M8.62318361,13.7245473 L9.23766627,13.7245473 C9.64765743,13.7245473 9.85265301,13.9295429 9.85265301,14.3395341 L9.85265301,19.8718943 C9.85265301,20.2818855 9.64765743,20.4868811 9.23766627,20.4868811 L8.62318361,20.4868811 C8.21319245,20.4868811 8.00819687,20.2818855 8.00819687,19.8718943 L8.00819687,14.3395341 C8.00819687,13.9295429 8.21319245,13.7245473 8.62318361,13.7245473 Z M22.7623337,13.7245473 L23.3768164,13.7245473 C23.7868075,13.7245473 23.9918031,13.9295429 23.9918031,14.3395341 L23.9918031,19.8718943 C23.9918031,20.2818855 23.7868075,20.4868811 23.3768164,20.4868811 L22.7623337,20.4868811 C22.3523426,20.4868811 22.147347,20.2818855 22.147347,19.8718943 L22.147347,14.3395341 C22.147347,13.9295429 22.3523426,13.7245473 22.7623337,13.7245473 Z" id="形状结合" fill="#FFFFFF" fill-rule="nonzero"></path>
                    </g>
                </g>
            </g>
        </g>
    </g>
</svg>