<?xml version="1.0" encoding="UTF-8"?>
<svg width="33px" height="33px" viewBox="0 0 33 33" version="1.1" xmlns="http://www.w3.org/2000/svg" xmlns:xlink="http://www.w3.org/1999/xlink">
    <g id="L4" stroke="none" stroke-width="1" fill="none" fill-rule="evenodd">
        <g id="L4-已连接钱包" transform="translate(-1102.000000, -24.000000)" fill="#FFFFFF">
            <g id="编组-2" transform="translate(532.000000, 19.000000)">
                <g id="编组-5" transform="translate(570.000000, 5.000000)">
                    <rect id="矩形" stroke="#FFFFFF" opacity="0" x="0.5" y="0.5" width="32" height="32"></rect>
                    <path d="M22.9544179,23.368175 L25.7672701,10.1075863 C25.8820804,9.54629153 25.8151077,9.14445551 25.5663521,8.90207822 C25.3175964,8.65970094 24.9891114,8.61505249 24.5808971,8.76813288 L8.04821505,15.1401041 C7.67827076,15.2804277 7.42632596,15.4398865 7.29238065,15.6184803 C7.15843533,15.7970741 7.14248945,15.9661003 7.244543,16.1255591 C7.34659656,16.2850178 7.55070376,16.4093957 7.85686458,16.4986925 L12.0857103,17.8190109 L21.9019903,11.6383902 C22.1698809,11.4597964 22.3739881,11.4215263 22.5143118,11.5235799 C22.6036087,11.5873634 22.5780953,11.6830386 22.4377716,11.8106056 L14.4967264,18.9862488 L14.1905657,23.3490399 C14.4839698,23.3490399 14.7709955,23.2087162 15.0516428,22.9280689 L17.1182281,20.9380238 L21.404479,24.0953068 C22.2209077,24.554548 22.7375541,24.3121707 22.9544179,23.368175 L22.9544179,23.368175 Z" id="路径" fill-rule="nonzero"></path>
                </g>
            </g>
        </g>
    </g>
</svg>