<?xml version="1.0" encoding="UTF-8"?>
<svg width="32px" height="32px" viewBox="0 0 32 32" version="1.1" xmlns="http://www.w3.org/2000/svg" xmlns:xlink="http://www.w3.org/1999/xlink">
    <title>编组 10</title>
    <g id="L4" stroke="none" stroke-width="1" fill="none" fill-rule="evenodd">
        <g id="移动端-L4官网-全" transform="translate(-264.000000, -6944.000000)">
            <g id="编组-23" transform="translate(0.000000, 5662.000000)">
                <g id="编组-15" transform="translate(15.000000, 1266.000000)">
                    <g id="编组-10" transform="translate(249.000000, 16.000000)">
                        <rect id="矩形" fill-opacity="0" fill="#000000" x="0" y="0" width="32" height="32"></rect>
                        <path d="M17.1963762,16 C17.1963762,15.9358132 17.1321894,15.8074395 17.0680026,15.7432527 L8.7237139,7.78408501 C8.65952707,7.71989818 8.53115339,7.71989818 8.46696656,7.71989818 C8.33859288,7.71989818 8.27440605,7.78408501 8.21021923,7.91245868 C8.1460324,8.10501919 8.08184555,8.2975797 8.08184555,8.49014021 L8.08184555,23.5098598 C8.08184555,23.7024203 8.14603238,23.8949808 8.21021923,24.0875413 C8.27440605,24.1517281 8.3385929,24.2801018 8.46696656,24.2801018 L8.53115339,24.2801018 C8.59534022,24.2801018 8.7237139,24.2801018 8.7237139,24.215915 L17.1321894,16.2567473 C17.1963762,16.1925605 17.1963762,16.0641868 17.1963762,16 L17.1963762,16 Z M17.6456841,15.3581316 C17.7098709,15.4223185 17.7740578,15.4223185 17.8382446,15.4223185 C17.9024314,15.4223185 17.9666183,15.4223185 18.0308051,15.3581316 L20.3415312,13.1757792 C20.405718,13.1115924 20.4699049,12.9832187 20.4699049,12.9190319 C20.4699049,12.7906582 20.405718,12.7264714 20.2773444,12.6622845 L10.264198,7.20640348 C10.0716375,7.0780298 9.87907694,7.0780298 9.68651644,7.01384298 C9.55814276,7.01384298 9.4297691,7.0780298 9.36558227,7.20640348 C9.30139544,7.33477716 9.36558227,7.46315082 9.4297691,7.5915245 L17.6456841,15.3581316 Z M18.0949919,16.6418684 C17.9666183,16.5134947 17.7740578,16.5134947 17.6456841,16.6418684 L9.4297691,24.4084755 C9.36558227,24.5368492 9.30139542,24.6652228 9.36558227,24.7935965 C9.4297691,24.9219702 9.55814278,24.986157 9.68651644,24.986157 C9.87907694,24.986157 10.0716375,24.9219702 10.264198,24.7935965 L20.2131575,19.2735286 C20.2773444,19.2093418 20.3415312,19.145155 20.405718,19.0167813 C20.405718,18.8884076 20.405718,18.8242208 20.2773444,18.7600339 L18.0949919,16.6418684 Z M23.935994,14.6520764 L21.4968942,13.3041529 C21.3685206,13.2399661 21.2401469,13.2399661 21.1117732,13.3683397 L18.5442998,15.8074395 C18.480113,15.8716263 18.4159261,15.9358132 18.4159261,16.0641868 C18.4159261,16.1925605 18.480113,16.2567473 18.5442998,16.3209342 L21.0475864,18.6958471 C21.1117732,18.7600339 21.1759601,18.7600339 21.2401469,18.7600339 C21.3043337,18.7600339 21.3685206,18.7600339 21.3685206,18.6958471 L23.935994,17.2837367 C24.3853018,17.0269894 24.706236,16.5134947 24.706236,16 C24.706236,15.4865053 24.5136755,14.9088238 23.935994,14.6520764 L23.935994,14.6520764 Z" id="形状" fill="#FFFFFF" fill-rule="nonzero"></path>
                    </g>
                </g>
            </g>
        </g>
    </g>
</svg>