<?xml version="1.0" encoding="UTF-8"?>
<svg width="220px" height="64px" viewBox="0 0 220 64" version="1.1" xmlns="http://www.w3.org/2000/svg" xmlns:xlink="http://www.w3.org/1999/xlink">
    <g id="L4" stroke="none" stroke-width="1" fill="none" fill-rule="evenodd">
        <g id="L4官网" transform="translate(-608.000000, -4592.000000)">
            <g id="编组-16" transform="translate(0.000000, 3456.000000)">
                <g id="编组-9" transform="translate(120.000000, 1019.000000)">
                    <g id="编组-32" transform="translate(488.000000, 117.000000)">
                        <rect id="矩形备份-8" fill-opacity="0" fill="#9D9D9D" x="0" y="0" width="220" height="64"></rect>
                        <path d="M116.010586,40.6423885 C116.359498,40.6011668 116.714594,40.5884469 117.056264,40.5140711 C119.329821,40.0192333 120.898191,38.2889204 121.185919,35.9716097 C121.58418,32.7640856 119.279648,29.7075509 115.755305,29.8971121 C114.435443,29.9681313 113.294366,30.4580225 112.395319,31.4257917 C111.079108,32.8427014 110.713354,34.5369746 111.04195,36.4080892 C111.471599,38.8546007 113.549234,40.6119433 116.010586,40.6423885 L116.010586,40.6423885 Z M115.753833,44.18375 C115.300099,44.1242729 114.844304,44.0775745 114.392985,44.0033165 C110.541989,43.3700324 107.513662,40.2132111 107.044381,36.3645708 C106.740106,33.8693588 107.462547,31.6589891 108.928746,29.6736902 C111.319314,26.4368397 113.737441,23.2203057 116.149856,19.9996495 C116.215163,19.9124361 116.347838,19.8242215 116.449774,19.8234559 C117.900662,19.8126205 119.351668,19.8168016 120.802615,19.8183327 C120.818986,19.8183327 120.835357,19.8315825 120.885235,19.8530767 C119.216343,22.0075026 117.553457,24.1541553 115.864955,26.3339031 C115.965477,26.3530418 116.026485,26.3768915 116.086316,26.3742415 C118.406394,26.2716582 120.425259,27.0343197 122.137552,28.5660614 C124.24687,30.4529581 125.269405,32.8444091 125.141677,35.6683353 C124.966308,39.544123 122.250853,42.8346795 118.470524,43.8162874 C117.858675,43.9751679 117.218854,44.0264006 116.592225,44.1288662 C116.508132,44.142646 116.425453,44.1652591 116.342126,44.18375 L115.753833,44.18375 Z M89.3133592,40.2726793 C92.3282599,40.2795546 94.7899645,37.8491196 94.8040988,34.8518264 C94.8181131,31.8445812 92.352404,29.3698033 89.3406244,29.3683894 C86.3504568,29.3669767 83.8792711,31.816256 83.8736663,34.7869316 C83.8679056,37.838343 86.2749032,40.2657158 89.3133592,40.2726793 M94.7962067,27.2784467 L94.7962067,26.1191142 L98.6201139,26.1191142 L98.6201139,43.690302 L94.8111054,43.690302 L94.8111054,42.3708523 C92.0833437,44.1817242 89.2176069,44.631807 86.1768543,43.5658711 C84.2708189,42.8976664 82.7568614,41.6827433 81.6201419,40.0142631 C79.3871591,36.7366031 79.5089989,32.3185137 81.9204719,29.1991452 C83.4565714,27.2121386 85.4699011,26.0056954 87.9581054,25.6301652 C90.4306455,25.2569905 92.6914236,25.844165 94.7962067,27.2784467 M131.326301,40.1742389 L139.96968,40.1742389 L139.96968,43.6871573 L126.619836,43.6871573 C126.614242,43.586694 126.604466,43.4914717 126.604348,43.3962495 C126.60323,42.4073394 126.597635,41.4183705 126.610414,40.429696 C126.612239,40.2877754 126.670598,40.1187662 126.76052,40.0098818 C129.504181,36.6871723 132.255145,33.3704695 135.004519,30.052471 C135.07648,29.9656698 135.143142,29.8744519 135.253439,29.7322368 L126.624194,29.7322368 L126.624194,26.2346293 L139.967442,26.2346293 C139.974155,26.3279083 139.985344,26.412884 139.985462,26.4978008 C139.986699,27.4964863 139.992175,28.4952307 139.979573,29.4937395 C139.977807,29.6347768 139.920332,29.8029616 139.83088,29.9109626 C137.075971,33.2373232 134.313819,36.5576182 131.553256,39.8793266 C131.488244,39.9575302 131.428943,40.0404448 131.326301,40.1742389 M105.150353,43.686751 L101.287227,43.686751 C101.287227,43.5415326 101.287227,43.4077386 101.287227,43.2740034 C101.287227,36.7640274 101.287227,30.2540513 101.287168,23.7440753 C101.287168,23.3231422 101.286991,23.3230833 100.856989,23.3230244 C100.171648,23.3229067 99.4863656,23.3229656 98.7734647,23.3229656 L98.7734647,19.8375479 L105.150353,19.8375479 L105.150353,43.686751 Z" id="形状结合" fill="#FFFFFF"></path>
                    </g>
                </g>
            </g>
        </g>
    </g>
</svg>