<?xml version="1.0" encoding="UTF-8"?>
<svg width="220px" height="64px" viewBox="0 0 220 64" version="1.1" xmlns="http://www.w3.org/2000/svg" xmlns:xlink="http://www.w3.org/1999/xlink">
    <g id="L4" stroke="none" stroke-width="1" fill="none" fill-rule="evenodd">
        <g id="L4官网" transform="translate(-1096.000000, -4680.000000)">
            <g id="编组-16" transform="translate(0.000000, 3456.000000)">
                <g id="编组-9" transform="translate(120.000000, 1019.000000)">
                    <g id="编组-14" transform="translate(976.000000, 205.000000)">
                        <rect id="矩形备份-15" fill-opacity="0" fill="#9D9D9D" x="0" y="0" width="220" height="64"></rect>
                        <path d="M128.86736,31.1667685 C128.86736,29.2468353 128.86703,27.3269021 128.867525,25.4069689 C128.86769,24.299296 128.868186,24.2994612 129.983124,24.3002868 C130.279362,24.3006171 130.5756,24.3004519 130.912129,24.3004519 L130.912129,34.7425966 C129.268619,35.1131419 128.958345,34.9957365 128.018442,33.6993234 C126.637153,31.7935911 125.249755,29.8923172 123.726952,27.7994959 L123.726952,34.7947768 L121.663524,34.7947768 C121.643048,34.583414 121.604904,34.3720513 121.604573,34.1606886 C121.600775,31.1342384 121.617618,28.1076232 121.588886,25.0813382 C121.582942,24.4640929 121.772838,24.3116806 122.381331,24.2753526 C123.291677,24.2211909 123.875071,24.4705329 124.411404,25.2718949 C125.767263,27.2978397 127.247628,29.2407256 128.678124,31.216802 C128.741203,31.2001242 128.804282,31.1834463 128.86736,31.1667685 M92.1596309,27.7268565 C90.7735538,26.3001581 89.3323241,25.6005144 87.5558864,25.9920308 C84.9519966,26.5658476 83.7918133,29.6451384 85.3179183,31.842155 C86.4546535,33.4785649 88.2845924,33.9100421 90.1021468,32.9958983 C90.5207441,32.7853612 90.7383817,32.527928 90.6890087,32.037005 C90.6482223,31.6327738 90.6805872,31.2211118 90.6805872,30.7400965 L87.947568,30.7400965 L87.947568,28.9943724 L92.6437837,28.9943724 C92.6437837,30.318692 92.6635989,31.630462 92.6252894,32.9404155 C92.6185192,33.1740704 92.4048447,33.4326595 92.2279936,33.6256932 C90.6118943,35.3902417 88.1123648,35.8570561 85.8933864,34.8253418 C83.6580604,33.7861967 82.3745271,31.5112402 82.6147871,29.1519037 C83.0736754,24.6447585 87.661898,22.8364513 91.0547653,24.4646048 C91.8472104,24.8448926 92.325914,25.3657036 92.1701991,26.3209641 C92.1062949,26.713141 92.1596309,27.1243076 92.1596309,27.7268565 M165.607454,24.2718189 L165.607454,26.3560536 C164.278676,26.3560536 162.993161,26.3406968 161.708142,26.3603469 C160.396867,26.3803273 159.38018,27.3398811 159.251215,28.7068035 L165.316335,28.7068035 C165.369011,28.8517851 165.416402,28.9252667 165.420365,29.0012252 C165.518616,30.8136606 165.51779,30.8136606 163.704859,30.8136606 C162.249429,30.8136606 160.794163,30.8136606 159.32899,30.8136606 C159.573544,32.1118901 160.566288,32.9690651 161.853949,32.9925132 C163.085302,33.0149705 164.317481,32.997467 165.600684,32.997467 L165.600684,35.2608646 C163.814669,35.1269465 161.972841,35.2248669 160.258326,34.804123 C157.800739,34.2010787 156.30254,30.919342 157.008294,28.2943159 C157.551397,26.2746459 158.645364,24.6555743 160.805722,24.3188801 C162.35511,24.0772991 163.972365,24.2718189 165.607454,24.2718189 M114.996681,24.2698043 L117.051523,24.2698043 C117.051523,25.1890671 117.0611,26.0888449 117.049376,26.9882924 C117.031542,28.361985 117.037487,29.7373289 116.964005,31.1083795 C116.836527,33.4853846 114.758567,35.0663118 112.578064,35.0762656 C110.314666,35.0864573 108.532119,33.3909319 108.400182,31.0195411 C108.276667,28.8017186 108.373762,26.5715115 108.373762,24.2792166 L110.370314,24.2792166 C110.370314,24.6040217 110.367672,24.9223868 110.370809,25.240917 C110.389634,27.08258 110.336463,28.9291967 110.453373,30.76475 C110.541551,32.1496712 111.499618,33.0042042 112.654187,32.9900032 C113.931611,32.974151 114.920722,31.9904887 114.961509,30.5796424 C115.013193,28.7926366 114.98859,27.0034841 114.996516,25.2153223 C114.997837,24.9194145 114.996681,24.6233415 114.996681,24.2698043 M100.646373,28.6257096 C100.149671,29.6935867 99.7077904,30.643398 99.2462601,31.6354818 L102.059036,31.6354818 C101.582149,30.6194546 101.145883,29.6899539 100.646373,28.6257096 M105.857125,35.1069496 C105.471553,35.1069496 105.246155,35.0732637 105.034627,35.1127291 C104.040726,35.2988273 103.446764,34.9170534 103.110565,33.9546925 C103.020901,33.6980849 102.57704,33.4233133 102.281132,33.4058099 C101.184192,33.34108 100.080317,33.3587486 98.9807357,33.3965627 C98.7342009,33.4049842 98.3884246,33.5560756 98.2690377,33.7519163 C97.3874239,35.1980998 97.40179,35.2068515 95.4752517,35.0552648 C97.1536039,31.4234586 98.813627,27.8316132 100.569919,24.031047 C102.363365,27.7881847 104.075733,31.3750764 105.857125,35.1069496 M172.499795,26.2903 L169.010163,26.2903 L169.010163,24.2869776 L177.977557,24.2869776 L177.977557,26.2622283 L174.527886,26.2622283 L174.527886,35.0810081 L172.499795,35.0810081 L172.499795,26.2903 Z M140.07581,35.1020453 L138.071992,35.1020453 C138.056471,34.8127426 138.028069,34.5242655 138.027573,34.2356233 C138.02394,31.8690212 138.000327,29.5020888 138.040618,27.1363123 C138.052673,26.433201 137.817201,26.2281131 137.144639,26.2670831 C136.275574,26.3172817 135.401391,26.2793025 134.489229,26.2793025 L134.489229,24.2670632 L143.509794,24.2670632 L143.509794,26.2657621 L140.07581,26.2657621 L140.07581,35.1020453 Z M149.086286,32.8160088 L154.3119,32.8160088 L154.3119,34.8041395 L147.188645,34.8041395 L147.188645,24.3007326 C147.589739,24.3007326 147.992979,24.3288043 148.390771,24.2937973 C148.936351,24.2457453 149.101478,24.4651993 149.096029,25.0015322 C149.072581,27.2835892 149.086121,29.5661416 149.086286,31.8483638 C149.086286,32.1436111 149.086286,32.4386933 149.086286,32.8160088 M59.9887704,18.7 L59.9887704,23.1333333 L46.4554427,23.133 L46.4554427,36.433 L55.5554371,36.4333333 L55.5554371,32 L59.9887704,32 L59.9887704,40.8666667 L42.0224427,40.8666667 L42.0224427,18.7 L59.9887704,18.7 Z M59.9887704,27.5666667 L59.9887704,32 L51.1214433,32 L51.1214433,27.5666667 L59.9887704,27.5666667 Z M64.4221038,23.1333333 L64.4221038,27.5666667 L59.9887704,27.5666667 L59.9887704,23.1333333 L64.4221038,23.1333333 Z M42.0224427,45.3 L46.4557761,45.3 L46.4557761,40.8666667 L42.0224427,40.8666667 L42.0224427,45.3 Z" id="形状结合" fill="#FFFFFF"></path>
                    </g>
                </g>
            </g>
        </g>
    </g>
</svg>