<?xml version="1.0" encoding="UTF-8"?>
<svg width="166px" height="73px" viewBox="0 0 166 73" version="1.1" xmlns="http://www.w3.org/2000/svg" xmlns:xlink="http://www.w3.org/1999/xlink">
    <defs>
        <linearGradient x1="9.85500602e-15%" y1="53.3036465%" x2="100%" y2="36.5209265%" id="linearGradient-1">
            <stop stop-color="#FF440F" offset="0%"></stop>
            <stop stop-color="#FEC03B" offset="22.4978147%"></stop>
            <stop stop-color="#F554FE" offset="51.3002622%"></stop>
            <stop stop-color="#2FC4F1" offset="84.1127622%"></stop>
            <stop stop-color="#45F0C1" offset="100%"></stop>
        </linearGradient>
    </defs>
    <g id="L4" stroke="none" stroke-width="1" fill="none" fill-rule="evenodd">
        <g id="移动端-L4官网-全" transform="translate(-15.000000, -247.000000)">
            <g id="编组-25" transform="translate(15.000000, 247.000000)">
                <rect id="矩形" fill-opacity="0" fill="#D8D8D8" x="0" y="0" width="166" height="73"></rect>
                <text id="{备份" font-family="MontserratAlternates-Light, Montserrat Alternates" font-size="60" font-weight="300" fill="#FFFFFF">
                    <tspan x="0" y="58">{</tspan>
                </text>
                <text id="}备份" font-family="MontserratAlternates-Light, Montserrat Alternates" font-size="60" font-weight="300" fill="#FFFFFF">
                    <tspan x="144" y="58">}</tspan>
                </text>
                <path d="M55.2086675,13.025 L54.9778622,13.0301967 C54.8245002,13.0371177 54.6721748,13.0509365 54.5174923,13.0724678 L54.7995984,13.0652026 C40.2899561,13.301632 28.6831667,25.1789022 28.7929388,39.6767748 C28.9058694,54.1750277 40.6937242,65.8729515 55.2052914,65.8868991 L55.8615917,65.8789817 C62.6172724,65.6959854 68.3482088,62.9292291 73.3889642,57.6457855 L73.6757365,57.3416653 L74.2364533,56.7336391 L74.5687477,56.3624094 L75.125764,55.7181631 L75.6275176,55.1144766 L76.2139844,54.3804276 L76.7470349,53.6820025 L77.2781427,52.9588915 L77.8150695,52.2007405 L78.3244718,51.4549203 L78.8740534,50.6270718 L79.4400328,49.7474282 L80.0187467,48.8258982 L80.9243848,47.3429877 L81.5652284,46.2714866 L82.5772221,44.5473391 L84.7913504,40.7033561 L85.8088189,38.9540831 L86.4366395,37.8866509 L87.3175134,36.4155836 L88.1286725,35.1011097 L88.6339983,34.3040579 L89.1211876,33.5538101 L89.573658,32.8800378 L90.0365881,32.2142074 L90.2485419,31.9150384 L90.7355844,31.2535058 L90.8887271,31.051223 L91.3153982,30.5017917 L91.7322065,29.9893549 L92.1635922,29.4790757 L92.6019968,28.9812029 L93.0707825,28.4732401 L93.3016255,28.2274446 L93.5038382,28.0179491 C96.6724234,24.772505 99.8728605,23.2475064 103.707842,23.1367918 L104.135491,23.1291747 L104.632178,23.1363747 C113.55203,23.3574821 120.663888,30.7368051 120.546949,39.6876151 C120.430125,48.6296563 113.136581,55.7946425 104.167931,55.7828182 C99.3271493,55.7828152 95.4883176,53.6226798 91.4618824,48.5611121 C90.3573673,47.1569874 88.566121,46.443538 86.7787876,46.7060684 C84.9914542,46.9685988 83.4815392,48.1669354 82.8212623,49.8469388 C82.1609855,51.5269421 82.4513853,53.4315308 83.5824075,54.8389136 C89.4280131,62.1849564 96.0274636,65.8517486 104.1633,65.8517486 C118.65044,65.8544164 130.434255,54.2449314 130.602823,39.7818231 C130.77145,25.313583 119.257015,13.4029818 104.778249,13.0687286 L104.238219,13.0619404 L104.153549,13.0619293 L103.51259,13.0695709 C96.7571857,13.2525742 91.0295169,16.0183768 85.9879999,21.3008388 L85.7008203,21.605386 L85.1382372,22.2171021 L84.8478181,22.5409511 L84.3002775,23.1706532 L83.7490392,23.8325747 L83.1641021,24.5666237 L82.6699972,25.2131032 L82.351195,25.6404739 C82.2784474,25.7392316 82.2032124,25.8421146 82.1230522,25.9523248 L81.3733477,27.018945 C81.3551039,27.045652 81.3343617,27.0760504 81.3098227,27.1120217 L80.7457848,27.9506251 L79.9127473,29.2380455 L79.066803,30.5936656 L78.138178,32.1292969 L77.484177,33.231091 L76.4463104,35.0091224 L75.320937,36.9630891 L73.5655348,40.0020474 L72.3439876,42.0606591 L71.7870594,42.9778019 L71.253911,43.8371425 L70.7440882,44.6414651 L70.2784594,45.3559858 L69.5647022,46.412145 L69.3459178,46.7265014 L68.900712,47.3442939 L68.7127289,47.5988407 L68.2797234,48.1668364 L67.8510372,48.7062436 L67.4255904,49.2192198 L67.2036019,49.4786863 L66.7879602,49.9495771 L66.3057742,50.4738112 L66.0749313,50.7196068 C62.7194605,54.2346481 59.3415643,55.8179665 55.2086675,55.8179665 L54.7314927,55.8120973 C45.8199376,55.5910976 38.7080797,48.2117745 38.8250186,39.2609646 C38.9407881,30.3996627 46.0988499,23.2628004 54.9357435,23.1324112 L55.3832555,23.1286441 L55.5664995,23.1189498 L55.7306635,23.1032832 L55.9205184,23.110525 C60.4399013,23.3151617 64.1149007,25.5192026 67.9684142,30.3834656 L68.0357137,30.4658201 C69.7894382,32.54664 72.880447,32.8593502 75.0160946,31.1720091 C77.1517421,29.4846679 77.5595643,26.407587 75.9370736,24.2230814 L75.8712793,24.1372919 C69.9995574,16.7207572 63.378064,13.025 55.2086675,13.025 Z" id="路径" fill="url(#linearGradient-1)" fill-rule="nonzero"></path>
            </g>
        </g>
    </g>
</svg>