<?xml version="1.0" encoding="UTF-8"?>
<svg width="220px" height="64px" viewBox="0 0 220 64" version="1.1" xmlns="http://www.w3.org/2000/svg" xmlns:xlink="http://www.w3.org/1999/xlink">
    <g id="L4" stroke="none" stroke-width="1" fill="none" fill-rule="evenodd">
        <g id="L4官网" transform="translate(-852.000000, -4680.000000)">
            <g id="编组-16" transform="translate(0.000000, 3456.000000)">
                <g id="编组-9" transform="translate(120.000000, 1019.000000)">
                    <g id="编组-19" transform="translate(732.000000, 205.000000)">
                        <rect id="矩形备份-14" fill-opacity="0" fill="#9D9D9D" x="0" y="0" width="220" height="64"></rect>
                        <path d="M61.9736235,28.7534046 C57.8859761,26.0660696 53.8188188,23.3478508 49.7302804,20.6618522 C49.3506177,20.4124062 48.88647,20.2057224 48.4420701,20.1565756 C46.9891958,19.996069 45.9241505,21.087989 45.9232596,22.679098 C45.9193992,29.1860746 45.9213294,35.6930511 45.9235566,42.2000276 C45.9235566,42.4217079 45.9234081,42.6491788 45.9694368,42.864029 C46.1060382,43.5032344 46.5333629,43.8493406 47.1695986,43.872652 C47.7835624,43.8952209 48.2670125,43.4061286 48.3066566,42.7318821 C48.3425887,42.1186607 48.3173471,41.5017273 48.3173471,40.8865757 C48.3176441,35.0970534 48.3174956,29.307531 48.3174956,23.5180086 L48.3174956,22.6704862 C48.5293762,22.771304 48.6215821,22.8026332 48.7001279,22.8544526 C52.702845,25.4918984 56.712986,28.1186536 60.69061,30.7936648 C61.0154837,31.012227 61.2918045,31.5610081 61.2953681,31.9589339 C61.3246186,35.2231127 61.2809655,38.4880339 61.2683447,41.7526581 C61.2668599,42.1216303 61.3010103,42.4935721 61.3526812,42.8592777 C61.4434024,43.4990769 61.9823839,43.91972 62.6039201,43.8638917 C63.2906389,43.8021241 63.7144001,43.2900174 63.7164788,42.4484342 C63.7247937,38.9599025 63.7203393,35.4713708 63.7195969,31.9828391 C63.7193,30.5926232 63.1531467,29.5289143 61.9736235,28.7534046 M84.9863365,22.3321751 C84.850923,20.4409885 82.9438491,19.5161082 81.3585308,20.5627419 C77.2765255,23.2577979 73.21115,25.9783923 69.1151877,28.6520671 C67.8115355,29.5028561 67.2136075,30.6091787 67.246867,32.1766794 C67.3062589,34.9710683 67.2630513,37.7673874 67.2639422,40.5629641 C67.2640906,41.3022448 67.2363249,42.0433072 67.279681,42.7800637 C67.3185827,43.441838 67.7450165,43.8213522 68.3876369,43.863075 C69.0076883,43.903313 69.4192742,43.5413194 69.5886896,42.9613575 C69.6697595,42.6838489 69.6563964,42.3738231 69.6568418,42.0786454 C69.6609992,38.763538 69.6785198,35.4482822 69.644221,32.1336203 C69.6369455,31.4218084 69.9006455,30.9787448 70.4691745,30.6106635 C72.0035642,29.617037 73.5204333,28.5965357 75.0453204,27.5880613 C77.5143901,25.955081 79.9842023,24.3232885 82.559435,22.6211167 C82.5855675,22.8603176 82.6050183,22.9553446 82.6050183,23.0502232 C82.6032365,29.2102025 82.59997,35.3701819 82.5964065,41.5303097 C82.5961095,41.9258597 82.5644833,42.3237855 82.596555,42.7166629 C82.6517894,43.3929881 83.1947799,43.8899499 83.8142374,43.8746564 C84.4139471,43.8598085 84.8987335,43.3812582 84.9655494,42.7300261 C84.9982149,42.4121309 85.0409771,42.0928995 85.0406816,41.7744104 C85.0362257,36.0848149 85.026426,30.3952194 85.0157355,24.7056239 C85.0142507,23.9142268 85.0427588,23.1200086 84.9863365,22.3321751 M115.945611,31.02121 C115.945611,29.5868956 115.971447,28.1516904 115.921261,26.7191578 C115.911907,26.4486277 115.648652,26.0444658 115.412866,25.9639898 C115.170844,25.8812865 114.804248,26.0896036 114.521839,26.2300655 C114.387168,26.2970298 114.314264,26.497626 114.22488,26.6447694 C113.032587,28.6073747 111.844304,30.5723557 110.651121,32.5343671 C110.026912,33.5606592 109.395279,34.5823483 108.701878,35.7124277 C107.821542,34.2331239 107.006091,32.8638437 106.19168,31.4939695 C105.169842,29.7750195 104.151568,28.0539907 103.125276,26.3377133 C102.897805,25.9571597 102.562389,25.5859603 102.11695,25.8487695 C101.84642,26.0080882 101.713531,26.4382341 101.576038,26.7703833 C101.506104,26.9395017 101.562527,27.1610335 101.562378,27.358957 C101.562378,30.9445945 101.562081,34.5302319 101.562824,38.1160179 C101.562972,38.6352515 101.554806,39.1549307 101.576335,39.6734219 C101.593113,40.0793656 101.738178,40.3938457 102.231873,40.3850854 C102.721263,40.3764736 103.040939,40.1827075 103.075387,39.658277 C103.088453,39.4612444 103.082959,39.2628754 103.082959,39.0651004 C103.083405,36.1964717 103.082365,33.3279914 103.084889,30.4593626 C103.085038,30.2281797 103.108201,29.9969967 103.129433,29.6048617 C103.334781,29.9000394 103.451041,30.0486677 103.547701,30.2090258 C104.989291,32.5976195 106.429247,34.9871041 107.867125,37.377925 C108.250203,38.0150516 109.178944,38.0307905 109.554598,37.4037605 C110.621128,35.6231914 111.686618,33.8421768 112.757603,32.0642802 C113.245656,31.2540263 113.745438,30.4507508 114.239876,29.6443573 C114.283529,29.6600962 114.327182,29.6756865 114.370835,29.6914254 L114.370835,30.4100674 C114.370835,33.3033438 114.368756,36.1966201 114.374102,39.0898965 C114.374696,39.3589418 114.339654,39.6799551 114.468535,39.8832238 C114.629041,40.1362333 114.950055,40.4550193 115.188365,40.4443288 C115.433208,40.4334898 115.717992,40.094362 115.878499,39.8333346 C115.992679,39.647735 115.943236,39.3534481 115.943533,39.1075656 C115.946948,36.4120643 115.94576,33.7167114 115.945611,31.02121 M170.120289,32.214126 C168.940914,32.3063319 167.751295,32.2917809 166.56702,32.2745573 C166.397308,32.2721816 166.090252,31.9925942 166.086243,31.8353542 C166.049271,30.3572383 166.064268,28.8779345 166.064268,27.3101369 C167.487892,27.3101369 168.798968,27.2446573 170.100541,27.3282514 C171.459131,27.415409 172.565453,28.5894384 172.554614,29.7649526 C172.543478,30.9710536 171.4719,32.1084084 170.120289,32.214126 M174.050103,30.3989611 C174.243423,28.610374 173.45648,27.309246 171.945848,26.3911957 C171.1252,25.8926007 170.245012,25.8698833 169.319241,25.890522 C168.037267,25.9190301 166.753065,25.8338027 165.469458,25.8051461 C164.872718,25.7919314 164.540865,26.0694401 164.541014,26.6937974 C164.542499,30.9722414 164.539529,35.2506854 164.546211,39.5291293 C164.546953,39.9897135 164.707757,40.3659612 165.260101,40.3757609 C165.837539,40.386006 166.037541,40.0403451 166.03769,39.5193297 C166.037987,38.5301576 166.038432,37.540837 166.038581,36.5516649 C166.038729,35.6719224 166.038581,34.7921799 166.038581,33.8411671 C166.861159,33.8411671 167.577276,33.8863049 168.284634,33.827507 C168.89934,33.7764299 169.203278,34.0157793 169.455842,34.5584728 C170.299059,36.3705196 171.195282,38.1579188 172.066265,39.957048 C172.277254,40.392836 172.639099,40.6941014 173.0541,40.4177806 C173.300874,40.253562 173.383725,39.7757542 173.441484,39.4226693 C173.471922,39.2373666 173.298795,39.0127168 173.202135,38.8133085 C172.405095,37.1723103 171.604493,35.5329454 170.791863,33.8662602 C170.984144,33.7900901 171.142572,33.7269862 171.301297,33.6647732 C172.809406,33.0739722 173.867918,32.0843547 174.050103,30.3989611 M152.997634,27.2957195 C155.025422,27.3276426 157.054101,27.310419 159.082334,27.3050737 C159.615376,27.3037374 160.10239,27.2027712 160.092145,26.5148645 C160.082048,25.8275517 159.606468,25.7591026 159.063032,25.7608515 C156.663748,25.7683083 154.264315,25.7611813 151.865031,25.7654872 C150.949356,25.7671205 150.737772,25.9798919 150.734357,26.9052177 C150.72827,28.5871963 150.732427,30.2693234 150.732575,31.951302 C150.732575,34.4001785 150.735545,36.849055 150.730487,39.297783 C150.729309,39.8383978 150.835026,40.3761914 151.465026,40.3840609 C154.132613,40.4173203 156.80124,40.4078176 159.468678,40.3634222 C159.680708,40.3598587 160.000384,39.9983105 160.060816,39.7519826 C160.114417,39.5328265 159.940993,39.1672693 159.750048,39.0057234 C159.575287,38.857986 159.242841,38.8603617 158.979735,38.8591739 C156.780156,38.8490772 154.580428,38.8533831 152.257611,38.8533831 C152.257611,37.2460899 152.240981,35.7424354 152.285377,34.2404143 C152.289534,34.1015857 152.680184,33.8644636 152.895777,33.8592668 C154.329497,33.8248195 155.764703,33.8303132 157.199165,33.8464975 C157.75151,33.8527337 158.254263,33.7467191 158.276089,33.1147893 C158.299252,32.4439578 157.799024,32.2879056 157.208817,32.2933993 C155.823798,32.3060201 154.437888,32.2723152 153.053611,32.3085443 C152.463552,32.3241347 152.211879,32.1845637 152.239496,31.5365981 C152.28894,30.3762288 152.283298,29.2109598 152.240981,28.0499966 C152.219452,27.4586018 152.412178,27.2865137 152.997634,27.2957195 M123.48917,35.4807102 C124.419841,33.2120881 125.339079,30.9712317 126.325578,28.5667507 C127.304654,30.9384177 128.22211,33.1607141 129.179953,35.4807102 L123.48917,35.4807102 Z M127.129002,26.4299786 C127.016158,26.1610818 126.634416,25.8719917 126.355274,25.8473441 C126.126467,25.8271508 125.74131,26.1350978 125.634999,26.3861771 C123.836167,30.6350736 122.075494,34.8998574 120.290767,39.1545446 C120.059881,39.7048106 120.213261,40.1039241 120.702353,40.3163987 C121.221587,40.5417909 121.590856,40.3009568 121.79264,39.7622722 C122.069555,39.0228431 122.403783,38.3044981 122.667483,37.560763 C122.807499,37.1662523 123.022201,37.0545955 123.428738,37.0590499 C125.382138,37.0802825 127.336131,37.0825097 129.289383,37.0577136 C129.714035,37.0523683 129.904089,37.2109447 130.043363,37.5836289 C130.336907,38.3689383 130.626146,39.1618201 131.008036,39.9048128 C131.126819,40.1361442 131.565132,40.3702968 131.808193,40.3270892 C132.094313,40.2763091 132.327278,39.9254515 132.564846,39.7206979 C132.446359,39.364495 132.389194,39.1506841 132.305749,38.9477123 C130.58858,34.7715709 128.876757,30.5932023 127.129002,26.4299786 L127.129002,26.4299786 Z M145.267273,37.883261 C143.740159,36.2364721 142.212006,34.5904256 140.639457,32.8956778 C141.267526,32.2312309 141.824474,31.636124 142.387954,31.0472534 C143.601776,29.7790878 144.820349,28.5156736 146.033874,27.2472111 C146.414576,26.8494339 146.624081,26.3713291 146.157558,25.950686 C145.707516,25.5450393 145.237578,25.7533564 144.857024,26.1615272 C144.789614,26.2338369 144.725025,26.3086707 144.657616,26.3811288 C142.62181,28.5719475 140.586152,30.7630631 138.548565,32.952397 C138.397412,33.1148339 138.232154,33.264353 137.96014,33.5310226 C137.96014,33.062569 137.96014,32.7915935 137.96014,32.5207664 C137.959843,30.5911236 137.961921,28.6614808 137.957764,26.7318379 C137.956576,26.2088923 137.770679,25.7652348 137.188342,25.7416265 C136.597541,25.7177212 136.481133,26.1716238 136.480984,26.6589344 C136.479796,30.8892709 136.477569,35.1197559 136.482321,39.3500924 C136.482915,39.8690292 136.671781,40.3371858 137.264215,40.3086777 C137.795921,40.2831392 137.967415,39.851657 137.962664,39.3450441 C137.953013,38.330779 137.945886,37.3160684 137.970236,36.3023971 C137.976175,36.0520603 138.041061,35.7512403 138.192362,35.5662345 C138.596969,35.071203 139.063047,34.6263577 139.471663,34.1963604 C139.927051,34.6262092 140.377538,35.0144838 140.785264,35.4434418 C142.232941,36.9662501 143.664583,38.5040548 145.105431,40.0332478 C145.477966,40.4286493 145.927117,40.5579752 146.343306,40.1603464 C146.738262,39.7830594 146.608788,39.3503894 146.269809,38.9756265 C145.938253,38.6091785 145.603283,38.2457001 145.267273,37.883261" id="形状结合" fill="#FFFFFF"></path>
                    </g>
                </g>
            </g>
        </g>
    </g>
</svg>