<?xml version="1.0" encoding="UTF-8"?>
<svg width="122px" height="40px" viewBox="0 0 122 40" version="1.1" xmlns="http://www.w3.org/2000/svg" xmlns:xlink="http://www.w3.org/1999/xlink">
    <g id="L4" stroke="none" stroke-width="1" fill="none" fill-rule="evenodd">
        <g id="移动端-L4官网-全" transform="translate(-226.000000, -7294.000000)">
            <g id="编组-23" transform="translate(0.000000, 5662.000000)">
                <g id="编组-15备份" transform="translate(15.000000, 1620.000000)">
                    <g id="编组-10" transform="translate(211.000000, 12.000000)">
                        <rect id="矩形" stroke="#1E1F23" stroke-width="0.590753425" fill-opacity="0" fill="#000000" x="0.295376712" y="0.295376712" width="121.409247" height="39.4092466" rx="10"></rect>
                        <text id="Learn-more" font-family="MontserratAlternates-Medium, Montserrat Alternates" font-size="13" font-weight="400" fill="#FFFFFF">
                            <tspan x="15" y="25">Learn more</tspan>
                        </text>
                        <g id="编组-4" transform="translate(95.000000, 14.000000)">
                            <rect id="矩形" fill="#D8D8D8" opacity="0" x="0" y="0" width="12" height="12"></rect>
                            <path d="M4.04161095,10.2857143 C3.87816757,10.2878574 3.72103612,10.2226331 3.60719383,10.1053364 C3.49106018,9.99061185 3.42569721,9.8341638 3.42569721,9.67091933 C3.42569721,9.50767485 3.49106018,9.3512268 3.60719383,9.2365022 L6.84483086,5.99886517 L3.60719383,2.76122815 C3.49106018,2.64650356 3.42569721,2.4900555 3.42569721,2.32681103 C3.42569721,2.16356656 3.49106018,2.0071185 3.60719383,1.89239391 C3.84812311,1.65491632 4.2350988,1.65491632 4.47602808,1.89239391 L8.57430279,5.99066863 L4.47602808,10.0889433 C4.36415458,10.2110781 4.20720158,10.2821511 4.04161095,10.2857143 L4.04161095,10.2857143 Z" id="路径" fill="#FFFFFF" fill-rule="nonzero"></path>
                        </g>
                    </g>
                </g>
            </g>
        </g>
    </g>
</svg>