<?xml version="1.0" encoding="UTF-8"?>
<svg width="16px" height="16px" viewBox="0 0 16 16" version="1.1" xmlns="http://www.w3.org/2000/svg" xmlns:xlink="http://www.w3.org/1999/xlink">
    <g id="L4" stroke="none" stroke-width="1" fill="none" fill-rule="evenodd">
        <g id="移动端-L4官网-一屏" transform="translate(-298.000000, -65.000000)">
            <g id="编组" transform="translate(0.000000, 44.000000)">
                <g id="编组-31备份" transform="translate(306.000000, 29.000000) rotate(-270.000000) translate(-306.000000, -29.000000) translate(298.000000, 21.000000)">
                    <rect id="矩形" fill="#D8D8D8" opacity="0" x="0" y="0" width="16" height="16"></rect>
                    <path d="M6.20076688,13.0576125 C6.00788578,13.0601416 5.82245345,12.9831697 5.68810708,12.8447468 C5.55105665,12.7093592 5.47392118,12.5247334 5.47392118,12.332087 C5.47392118,12.1394407 5.55105665,11.9548148 5.68810708,11.8194272 L9.50887353,7.99866078 L5.68810708,4.17789434 C5.55105665,4.04250675 5.47392118,3.8578809 5.47392118,3.66523453 C5.47392118,3.47258817 5.55105665,3.28796232 5.68810708,3.15257473 C5.97243003,2.87232515 6.42910374,2.87232515 6.71342669,3.15257473 L11.5498399,7.98898796 L6.71342669,12.8254012 C6.5814037,12.9695335 6.39618197,13.0534075 6.20076688,13.0576125 L6.20076688,13.0576125 Z" id="路径" stroke="#FFFFFF" stroke-width="0.4" fill="#FFFFFF" fill-rule="nonzero"></path>
                </g>
            </g>
        </g>
    </g>
</svg>