<?xml version="1.0" encoding="UTF-8"?>
<svg width="220px" height="64px" viewBox="0 0 220 64" version="1.1" xmlns="http://www.w3.org/2000/svg" xmlns:xlink="http://www.w3.org/1999/xlink">
    <g id="L4" stroke="none" stroke-width="1" fill="none" fill-rule="evenodd">
        <g id="L4官网" transform="translate(-608.000000, -4680.000000)">
            <g id="编组-16" transform="translate(0.000000, 3456.000000)">
                <g id="编组-9" transform="translate(120.000000, 1019.000000)">
                    <g id="编组-23" transform="translate(488.000000, 205.000000)">
                        <rect id="矩形备份-13" fill-opacity="0" fill="#9D9D9D" x="0" y="0" width="220" height="64"></rect>
                        <path d="M62.0240324,37.8316256 C61.2109334,37.8509623 60.3969729,37.8357418 59.583491,37.8357418 C59.583491,37.8378478 59.5833953,37.8399537 59.5833953,37.841964 C58.7539271,37.841964 57.9235017,37.8652255 57.0949908,37.836029 C56.1048939,37.8010889 55.8254689,37.2715311 56.3230541,36.4167912 C57.1402693,35.0129654 57.9574845,33.6090439 58.7899202,32.2142163 C59.2364832,31.4658283 59.8048101,31.4555856 60.2518518,32.1994745 C61.1135798,33.6337412 61.9596086,35.0777721 62.7890767,36.5308969 C63.2165903,37.2798593 62.8977261,37.810853 62.0240324,37.8316256 M53.1234991,36.454986 C52.5937499,37.4119616 51.8429687,37.8691503 50.7648037,37.8434956 C50.1913076,37.8299025 49.6171414,37.8411025 49.0432624,37.8411025 C49.0432624,37.8305726 49.0432624,37.8201384 49.0431666,37.8096085 C48.3265598,37.8096085 47.6066982,37.8523982 46.8943032,37.7974513 C46.1926297,37.7434617 45.9373277,37.2367825 46.2724654,36.6124557 C46.8219342,35.5886632 47.4017482,34.5811442 47.9750529,33.5703705 C49.8436298,30.2757593 51.7145041,26.982584 53.5865271,23.6898873 C53.6887627,23.5102091 53.7997095,23.3338813 53.9227178,23.1678919 C54.2290418,22.7546416 54.8355635,22.7204673 55.0958433,23.156692 C55.8945833,24.4951367 56.6824105,25.8421011 57.4122276,27.2187407 C57.7979088,27.9464518 57.5421282,28.6773219 57.155394,29.3555426 C55.8073766,31.7196944 54.4415542,34.0741778 53.1234991,36.454986 M54.3811509,17.5005136 C46.4039933,17.5661818 39.9977038,23.9146526 40.0000006,32.0312834 C40.0022029,39.9417198 46.2918978,46.4351202 54.4477764,46.499544 C62.4891663,46.5630105 69.0030521,39.9935077 68.9813144,31.9925143 C69.0087,24.0629326 62.5911148,17.4328351 54.3811509,17.5005136 M143.489389,34.3118183 C143.249691,34.1352033 143.10792,33.9318807 142.972563,33.7245376 C141.562419,31.5647614 140.155243,29.4030707 138.738973,27.247315 C138.652819,27.1163614 138.499274,26.9453943 138.371193,26.9402251 C137.644822,26.9106457 136.916632,26.9258662 136.19409,26.9258662 L136.19409,37.0385812 L137.975173,37.0385812 L137.975173,29.307823 C138.12441,29.5242602 138.204246,29.6336753 138.277477,29.7473024 C139.779996,32.0742166 141.280027,34.4026625 142.787907,36.7261307 C142.875114,36.8604346 143.020809,37.0458564 143.146402,37.0515043 C143.842045,37.0832854 144.539889,37.0667248 145.239457,37.0667248 L145.239457,26.9407995 L143.489389,26.9407995 L143.489389,34.3118183 Z M169.634111,30.9268511 L164.877951,30.9268511 L164.877951,26.9554552 L163.122618,26.9554552 L163.122618,37.0327515 L164.912125,37.0327515 L164.912125,32.6150797 L169.636696,32.6150797 L169.636696,37.0439515 L171.400261,37.0439515 L171.400261,26.9584227 L169.634111,26.9584227 L169.634111,30.9268511 Z M178.412,35.4234397 L178.412,32.6567589 L182.985801,32.6567589 L182.985801,31.032284 L178.402714,31.032284 L178.402714,28.534977 L183.246368,28.534977 L183.246368,26.9486012 L176.598657,26.9486012 L176.598657,37.0386291 L183.502532,37.0386291 L183.502532,35.4234397 L178.412,35.4234397 Z M77.9383436,33.1771461 C78.4672313,31.8074945 78.973719,30.4957574 79.523475,29.0720205 C80.0604036,30.4936514 80.5571273,31.8088347 81.0739534,33.1771461 L77.9383436,33.1771461 Z M80.7996977,27.9573838 C80.3502628,26.9132016 80.3494013,26.9242101 79.1988672,26.9176779 C78.9016371,26.9160734 78.7464648,27.001174 78.6286258,27.2828964 C78.1444423,28.4410886 77.6346041,29.5884638 77.1341472,30.7397637 C76.2290552,32.8220016 75.3239633,34.9041438 74.3826869,37.0694721 C74.9985897,37.0694721 75.5396346,37.055879 76.0794351,37.0755029 C76.3320567,37.0847883 76.4419505,36.9861902 76.5247537,36.7602762 C76.7325754,36.1935767 76.9477681,35.6279301 77.2006769,35.080663 C77.267111,34.9369779 77.4802934,34.7724244 77.629052,34.7695526 C78.8876611,34.7456211 80.1472274,34.7463869 81.4058364,34.7715629 C81.5573711,34.7745304 81.7770629,34.9336275 81.8423482,35.0765468 C82.1389082,35.7253795 82.3915299,36.3943147 82.6576489,37.0505183 L84.694704,37.0505183 C84.6108478,36.840782 84.5461369,36.6677089 84.4731934,36.498082 C83.249333,33.6508954 82.0248025,30.803996 80.7996977,27.9573838 L80.7996977,27.9573838 Z M101.893375,33.1739009 C102.41604,31.8165981 102.920901,30.505531 103.472667,29.0727959 C104.011414,30.4919379 104.51034,31.8059725 105.029655,33.1739009 L101.893375,33.1739009 Z M104.747262,27.9480122 C104.3074,26.9227838 104.313526,26.9335051 103.191614,26.9166573 C102.854945,26.9115838 102.695082,27.0147767 102.560012,27.3309606 C101.567044,29.6550031 100.549474,31.96842 99.541763,34.2861445 C99.144499,35.1997561 98.7528828,36.1159523 98.3420256,37.0694817 C98.9441439,37.0694817 99.4856674,37.0576116 100.026234,37.0748424 C100.275026,37.0826919 100.388175,36.9937622 100.471552,36.7601901 C100.674492,36.1920546 100.893131,35.6276525 101.145561,35.080194 C101.211516,34.9371789 101.422497,34.772434 101.569724,34.7695622 C102.82862,34.7453435 104.088378,34.7456306 105.347274,34.7696579 C105.500054,34.7726255 105.721277,34.9255003 105.787615,35.0666966 C106.050671,35.6266953 106.255238,36.213976 106.504988,36.7807712 C106.557063,36.8988975 106.705343,37.0497621 106.815333,37.0548356 C107.399741,37.0820218 107.986065,37.0676629 108.645045,37.0676629 C108.562146,36.849407 108.508252,36.6896398 108.441818,36.5352333 C107.210778,33.6725391 105.976005,30.8115679 104.747262,27.9480122 L104.747262,27.9480122 Z M125.386536,33.1750209 C125.90633,31.82126 126.405064,30.5223502 126.960755,29.0749689 C127.505916,30.5060767 128.003118,31.8113044 128.522529,33.1750209 L125.386536,33.1750209 Z M128.241764,27.9669373 C127.791946,26.9214149 127.797019,26.9319448 126.66161,26.9169158 C126.344948,26.9127038 126.19504,27.0037395 126.066671,27.3026926 C124.925423,29.9602455 123.763018,32.6087043 122.608943,35.260705 C122.357374,35.8387003 122.114421,36.4204288 121.837867,37.070123 C122.449941,37.070123 122.987348,37.0929059 123.52064,37.0557641 C123.675237,37.0450428 123.888324,36.8946568 123.953514,36.7526947 C124.198477,36.2193079 124.40247,35.6662972 124.603017,35.1136695 C124.696254,34.8567401 124.825963,34.7442618 125.121374,34.7487609 C126.348298,34.7674275 127.575796,34.766566 128.802815,34.7497182 C129.095738,34.7456977 129.226404,34.8573145 129.322896,35.115584 C129.534164,35.6812305 129.759217,36.2427609 130.009732,36.7918468 C130.065541,36.9143764 130.24541,37.0508821 130.374449,37.0573915 C130.944021,37.0861093 131.515985,37.0698359 132.141939,37.0698359 C132.0577,36.8510056 131.996627,36.6744864 131.922822,36.5034235 C130.696377,33.6576728 129.46639,30.8134538 128.241764,27.9669373 L128.241764,27.9669373 Z M157.322717,34.6987726 C156.239861,35.8126436 154.88543,36.030708 153.545454,35.2575269 C152.1221,34.4361955 151.678983,33.1038772 151.775283,31.5555047 C151.906237,29.4480908 153.777111,27.9544737 155.804594,28.3830402 C156.379717,28.5046126 156.8975,28.897569 157.511297,29.2004469 C157.858975,28.9459107 158.293668,28.6275251 158.756313,28.2887498 C157.492918,26.6749963 155.049983,26.2133085 152.867137,27.1378329 C150.72306,28.0458923 149.573292,30.353757 149.94471,33.0038432 C150.255054,35.2178005 152.021874,36.9662409 154.240713,37.2550471 C156.347553,37.5293028 158.39935,36.7569833 158.939821,35.4699435 C158.47976,35.1439955 158.016158,34.8155587 157.503256,34.452086 C157.436344,34.5447491 157.388768,34.630807 157.322717,34.6987726 M91.498449,34.5841308 C90.5494187,31.9609437 89.6386789,29.4436299 88.7321511,26.9378032 L86.6879165,26.9378032 C86.7565523,27.1372011 86.8109248,27.316975 86.8793691,27.4911968 C87.9944844,30.331874 89.1111314,33.1718811 90.2280656,36.0117925 C90.6473467,37.077896 90.6480168,37.069855 91.7879252,37.0753339 C92.073381,37.0766516 92.2269259,37.0187372 92.3472539,36.7163379 C93.4340343,33.9842143 94.5471394,31.2625249 95.649236,28.536432 C95.8588765,28.0178828 96.0540624,27.49359 96.2692551,26.9374203 L94.3465928,26.9374203 C93.410007,29.4517666 92.4739955,31.96506 91.498449,34.5841308 M114.442046,26.9385882 L112.718399,26.9385882 L112.718399,37.0431665 L118.731923,37.0431665 L118.731923,35.4288386 L114.442046,35.4288386 L114.442046,26.9385882 Z" id="形状结合" fill="#FFFFFF"></path>
                    </g>
                </g>
            </g>
        </g>
    </g>
</svg>