<?xml version="1.0" encoding="UTF-8"?>
<svg width="44px" height="44px" viewBox="0 0 44 44" version="1.1" xmlns="http://www.w3.org/2000/svg" xmlns:xlink="http://www.w3.org/1999/xlink">
    <defs>
        <rect id="path-1" x="0" y="0" width="44" height="44" rx="10"></rect>
    </defs>
    <g id="L4" stroke="none" stroke-width="1" fill="none" fill-rule="evenodd">
        <g id="移动端-L4官网-一屏" transform="translate(-20.000000, -620.000000)">
            <g id="编组-2" transform="translate(10.000000, 610.000000)">
                <g id="天气备份-10" transform="translate(10.000000, 10.000000)">
                    <mask id="mask-2" fill="white">
                        <use xlink:href="#path-1"></use>
                    </mask>
                    <use id="矩形" fill="#0F1012" xlink:href="#path-1"></use>
                    <path d="M25.0441004,30.2369845 C25.1964548,28.6681528 24.8119532,27.2718689 23.6371287,26.1716121 C22.585235,25.1863873 21.3252567,24.7805457 19.8725288,24.9041491 C19.1778326,24.96328 18.4468556,25.0184357 17.7777181,24.8706085 C16.2998056,24.5441464 15.1376981,22.7677354 15.3429152,21.3272276 C15.5981275,19.5351643 16.9858991,18.2722976 18.7090498,18.3362732 C20.3150048,18.395901 21.8083772,18.1744086 22.9930511,16.9653312 C23.9889652,15.9489259 24.4790676,14.7476746 24.3320743,13.3117631 C24.0441967,10.500189 25.6278347,8.42091858 28.362484,8.01197138 C30.8108766,7.64588165 33.1092836,9.48800741 33.4063872,11.9705107 C33.8385151,15.5819666 30.6524131,17.563845 27.9357172,17.0517914 C25.2417123,16.5438373 22.8689982,18.0958987 22.2747911,20.6673468 C21.5178815,23.9428996 24.5834216,27.0105005 27.8656491,26.2375753 C29.1276223,25.9404302 30.3715174,25.6737201 31.6652831,26.0524808 C33.992989,26.7341008 35.5842323,29.1715106 35.2422453,31.5619635 C34.8814321,34.0840944 32.8008345,35.9201332 30.3430912,36.0296992 C27.8339813,36.1416256 24.7370228,34.2639716 25.0441004,30.2369845" id="Fill-5" fill="#FFFFFF" mask="url(#mask-2)"></path>
                    <path d="M17.0764006,14.7711282 C17.1110606,15.9021927 16.6822989,16.8460508 15.8175443,17.5516462 C13.4369756,19.4943938 13.243478,23.2049809 15.4466324,25.4295941 C16.6517532,26.6463735 16.5584953,28.4603003 15.3261951,29.7258999 C14.2230595,30.8588278 12.2941929,30.960195 11.0708693,29.9493799 C9.77959721,28.8824153 9.53186546,26.9806617 10.516808,25.6564281 C10.8500677,25.2083502 11.2361901,24.794434 11.5294287,24.3225049 C12.8305502,22.2289487 12.4763449,19.6043325 10.6523311,17.8627044 C9.78196606,17.0317664 9.15097946,16.0892748 9.09288032,14.8618121 C8.98678081,12.6174473 10.7275109,10.7455076 12.9479952,10.6830227 C15.2925325,10.6171837 17.0675485,12.3748367 17.0764006,14.7711282" id="Fill-7" fill="#FFFFFF" mask="url(#mask-2)"></path>
                </g>
            </g>
        </g>
    </g>
</svg>