<?xml version="1.0" encoding="UTF-8"?>
<svg width="220px" height="64px" viewBox="0 0 220 64" version="1.1" xmlns="http://www.w3.org/2000/svg" xmlns:xlink="http://www.w3.org/1999/xlink">
    <g id="L4" stroke="none" stroke-width="1" fill="none" fill-rule="evenodd">
        <g id="L4官网" transform="translate(-120.000000, -4592.000000)">
            <g id="编组-16" transform="translate(0.000000, 3456.000000)">
                <g id="编组-9" transform="translate(120.000000, 1019.000000)">
                    <g id="编组-30" transform="translate(0.000000, 117.000000)">
                        <rect id="矩形" fill-opacity="0" fill="#9D9D9D" x="0" y="0" width="220" height="64"></rect>
                        <path d="M141.213854,37.3038906 C140.696096,38.8330301 139.799814,39.462225 138.138561,39.4621215 C136.438892,39.4619144 134.737269,39.4139767 133.040421,39.4793087 C132.082932,39.5161679 131.800233,39.0669204 131.795132,38.3130667 C131.783737,36.6399071 131.804031,34.9664369 131.792962,33.2932773 C131.790683,32.9453926 131.930242,32.8529339 132.274148,32.8547976 C133.829049,32.8632877 135.384168,32.8362645 136.938852,32.8510703 C138.259129,32.8637018 139.04027,33.325995 138.992629,34.7279909 C138.99176,34.7550141 139.028766,34.7830727 139.044176,34.8050225 L140.125705,34.8050225 C140.125705,32.9977824 140.120822,31.2403435 140.129721,29.4829047 C140.131674,29.1012669 139.871439,29.1163834 139.617932,29.144649 C139.355743,29.1738465 138.949654,28.9752623 138.936414,29.4776243 C138.905594,30.6460406 138.170575,31.1442611 136.941457,31.1690065 C136.146208,31.1849512 135.350417,31.1778071 134.554843,31.178946 C133.655848,31.180292 132.756962,31.1792566 131.831813,31.1792566 L131.831813,24.8221819 C131.934257,24.8084115 132.003169,24.7912243 132.072188,24.7910173 C134.259881,24.7836661 136.447574,24.7723806 138.635375,24.7754867 C139.28325,24.7764185 139.736546,25.1243032 139.974534,25.6661129 C140.207531,26.1967405 140.352733,26.7624673 140.539282,27.3207394 L141.663026,27.3207394 C141.542024,25.9301325 141.424821,24.5828042 141.305121,23.2066925 L140.683291,23.2066925 C135.692804,23.2066925 130.702317,23.2066925 125.71183,23.2066925 C124.617712,23.2066925 124.617712,23.2066925 124.774526,24.3490174 C125.012081,24.3490174 125.225326,24.3518129 125.438463,24.3484997 C126.780445,24.3282064 127.696912,24.896211 127.66989,26.4822959 C127.604451,30.3280781 127.65079,34.1756205 127.658821,38.0225416 C127.661317,39.2411733 127.017565,39.8803079 125.745146,39.8881767 C125.228256,39.8913863 124.711258,39.8886944 124.18547,39.8886944 L124.18547,40.9858771 L142.24937,40.9858771 C142.367876,39.4962887 142.483343,38.0451127 142.598268,36.5998382 C141.534754,36.419166 141.5086,36.433247 141.213854,37.3038906 M64.9402301,32.8219453 C65.783011,30.6283046 66.6086455,28.4790814 67.4343884,26.3299617 C67.4806187,26.3328608 67.5269576,26.3357598 67.5732964,26.3385553 C68.473811,28.4852937 69.3743255,30.632032 70.2929632,32.8219453 L64.9402301,32.8219453 Z M77.0326058,38.301543 C76.5859297,37.3817194 76.1834221,36.4410848 75.7939371,35.4973441 C74.0957868,31.3828831 72.4062097,27.2652124 70.7258569,23.1440215 C70.6070255,22.852461 70.4493432,22.7548255 70.1298548,22.7602094 C69.1176713,22.777086 68.1049451,22.766111 67.0925445,22.765904 C66.7920474,22.7658004 66.4916589,22.765904 66.269189,22.765904 C66.269189,23.2154621 66.3759746,23.6259867 66.2528022,23.9592726 C64.9332847,27.5297497 63.5846834,31.0904943 62.2278344,34.6482363 C61.7352536,35.9397581 61.2580829,37.2416337 60.6637086,38.4911195 C60.2258228,39.4117714 59.4179859,39.9518209 58.2814363,39.89208 C58.1464351,39.884936 58.0091549,39.9191032 57.8886957,39.932356 L57.8886957,40.9852248 L65.8251175,40.9852248 L65.8251175,39.9411566 C65.1617233,39.8852466 64.5315368,39.862572 63.9119854,39.7730124 C62.8967632,39.6263003 62.6414112,39.2161898 62.9619849,38.2970909 C63.3716549,37.1222554 63.8074788,35.9557028 64.2087927,34.7782789 C64.3042919,34.4981075 64.4450448,34.4040958 64.7479294,34.4058559 C66.6463026,34.4168309 68.5448928,34.4198334 70.4431575,34.4039923 C70.7943342,34.4009897 70.9513654,34.5289615 71.0722588,34.825906 C71.5093849,35.8996893 71.9439065,36.9759575 72.4321464,38.0290334 C72.9529429,39.1523074 72.5212429,39.8514935 71.222019,39.8865926 C70.7770793,39.8986029 70.3313799,39.8884562 69.8886107,39.8884562 L69.8886107,40.9974422 L79.5471662,40.9974422 L79.5471662,39.9180679 C78.3624329,39.8102857 77.5116214,39.2876304 77.0326058,38.301543 L77.0326058,38.301543 Z M121.366581,36.481309 C119.392894,40.0352201 115.566196,40.8971665 111.888498,39.023352 C109.928267,38.0247366 108.923354,36.3404985 108.331042,34.3604549 C107.683058,32.1938374 107.861902,30.0859255 108.802244,28.0545275 C109.757562,25.990826 111.522236,24.8544027 113.799459,24.3936626 C116.31695,23.8843636 118.961411,24.7477595 120.273006,26.9024702 C120.622664,27.476894 120.907208,28.0874523 121.227782,28.6931444 L122.322876,28.6931444 C122.322876,28.4645345 122.330364,28.2781677 122.321574,28.0926292 C122.261453,26.8186051 122.195797,25.5447881 122.13611,24.270764 C122.106809,23.6438469 121.86665,23.4528209 121.265222,23.7107318 C120.760161,23.9273314 120.310663,23.8313526 119.851942,23.6750115 C117.805762,22.9776891 115.733102,22.5651973 113.538464,22.8928922 C111.281969,23.2299055 109.101005,23.7701621 107.274473,25.1315715 C104.583673,27.1369817 103.248637,29.8089638 103.568885,33.0671729 C103.787448,35.2916676 104.787369,37.2553524 106.644829,38.699695 C109.375023,40.8227233 112.590526,41.3654648 116.00929,41.1940074 C117.680093,41.1102458 119.353501,41.0729725 121.024629,40.9928348 C121.173629,40.9856907 121.392301,40.8471581 121.446128,40.7189791 C121.867735,39.7147727 122.287389,38.7077709 122.644318,37.6815111 C122.843998,37.1076049 122.923328,36.4955971 123.062127,35.8774806 C122.336441,35.8421744 121.787972,35.7224855 121.366581,36.481309 M99.0885811,36.714868 C97.6019399,39.1899225 95.3392588,40.3265528 92.3356988,39.870886 C90.5597383,39.6014824 88.9614281,38.908198 87.8398545,37.5126214 C86.0782189,35.3205338 85.4591016,32.8315018 86.0000832,30.1126174 C86.5073144,27.5633268 87.8300876,25.5974678 90.5193682,24.7049779 C92.6406453,24.0009256 94.7032121,24.0253604 96.6109182,25.3102559 C97.646868,26.0079924 98.3319666,26.9778245 98.7575894,28.0959217 C98.9447896,28.5877229 99.199599,28.7994563 99.732767,28.7056517 C99.8688534,28.6817346 100.009172,28.6793532 100.18183,28.6640298 C100.18183,28.4482584 100.189319,28.261581 100.180637,28.0755249 C100.120733,26.7836924 100.059309,25.4918599 99.9944132,24.200131 C99.9666316,23.6458969 99.7526265,23.4567346 99.2196755,23.683895 C98.5989304,23.9485358 98.0754209,23.7568887 97.4972163,23.6134898 C96.2967473,23.3157171 95.0950846,22.9526124 93.8704152,22.8294033 C91.6955283,22.6106294 89.6061566,23.118686 87.5688754,23.8283293 C83.3503045,25.2979349 80.6671011,29.7727051 81.5143314,33.6424044 C82.0972024,36.3047575 83.4933363,38.423955 86.071165,39.7246916 C88.3949439,40.8972493 90.8901874,41.3597496 93.4977511,41.2139693 C95.3857062,41.108465 97.2609642,40.7537469 99.1583607,41.0298803 C100.048566,39.3986533 100.61798,37.7059251 100.905888,35.9131802 C100.012862,35.6518525 99.5373191,35.9678477 99.0885811,36.714868 M160.321236,36.6905057 C159.846127,37.3738506 159.319905,38.0569884 158.680928,38.5941389 C158.19399,39.0035246 157.512364,39.3824704 156.889123,39.428648 C155.325757,39.5442989 153.746113,39.4788635 152.173414,39.4547393 C151.408877,39.4430396 151.025035,39.0448359 150.985207,38.3244247 C150.975658,38.1522425 150.974138,37.9795426 150.974138,37.8071534 C150.973053,34.1153308 150.970774,30.4235083 150.9762,26.7316857 C150.976634,26.4230416 151.011578,26.111602 151.062367,25.8062711 C151.186081,25.0635994 151.633843,24.5792528 152.415851,24.452834 C152.975933,24.3623426 153.550122,24.3505394 154.127567,24.3029123 L154.127567,23.2406216 L143.961238,23.2406216 L143.961238,24.3565445 C144.159941,24.3565445 144.320662,24.3563374 144.481383,24.3566481 C146.303465,24.3595471 146.857795,24.8751619 146.858555,26.5957415 C146.860291,30.425579 146.832726,34.25552 146.865717,38.0850469 C146.875376,39.205629 146.040408,39.8827617 144.967561,39.8882492 C144.597501,39.8902164 144.227333,39.8885598 143.860312,39.8885598 L143.860312,40.9957856 C144.007576,41.0077959 144.113277,41.0239477 144.219086,41.0239477 C149.354341,41.0250866 154.489704,41.0216699 159.62496,41.0323376 C159.956168,41.0330589 160.096162,40.9197893 160.210001,40.6393073 C160.672738,39.4993638 161.162823,38.3694634 161.638366,37.234179 C161.8018,36.8438441 161.952211,36.448643 162.111304,36.0489898 C161.277965,35.825039 160.760316,36.0589293 160.321236,36.6905057" id="形状结合" fill="#FFFFFF"></path>
                    </g>
                </g>
            </g>
        </g>
    </g>
</svg>