<?xml version="1.0" encoding="UTF-8"?>
<svg width="220px" height="64px" viewBox="0 0 220 64" version="1.1" xmlns="http://www.w3.org/2000/svg" xmlns:xlink="http://www.w3.org/1999/xlink">
    <g id="L4" stroke="none" stroke-width="1" fill="none" fill-rule="evenodd">
        <g id="L4官网" transform="translate(-1096.000000, -4592.000000)">
            <g id="编组-16" transform="translate(0.000000, 3456.000000)">
                <g id="编组-9" transform="translate(120.000000, 1019.000000)">
                    <g id="编组-34" transform="translate(976.000000, 117.000000)">
                        <rect id="矩形备份-10" fill-opacity="0" fill="#9D9D9D" x="0" y="0" width="220" height="64"></rect>
                        <path d="M59.957512,33.0421322 C60.0157906,33.1914967 60.0840541,33.2572129 60.2484466,33.2563469 C61.3261935,33.2507941 62.4039912,33.2514564 63.4817381,33.2554809 C63.6639097,33.2561431 63.7229525,33.2016343 63.6787341,33.0129929 C63.1696622,30.8409428 61.9702129,29.175825 59.9972474,28.1145836 C58.2875546,27.1949634 56.4480085,26.9616961 54.5503365,27.3131508 C53.0278586,27.5951194 51.6736959,28.2514671 50.5489798,29.3391477 C49.0336339,30.8045696 48.2589461,32.5991333 48.1525774,34.6933936 C48.1481454,34.7813719 48.1106514,34.8676691 48.0885422,34.9547304 L48.0885422,35.2089352 C48.1100401,35.28754 48.1424907,35.3649732 48.151151,35.4450044 C48.1919562,35.8226437 48.2008203,36.2054282 48.2670969,36.5782789 C48.6276704,38.6072815 49.5956354,40.2819766 51.2782776,41.4951805 C53.0594942,42.7793987 55.0706668,43.2116996 57.2323755,42.9189311 C60.0080983,42.542922 62.015603,41.0947188 63.1924846,38.5415652 C63.4252934,38.0365179 63.6141385,37.510533 63.6745567,36.9416033 C63.6263139,36.9282563 63.5948821,36.9120055 63.5634504,36.9119546 C62.4432682,36.9102225 61.3230859,36.9057905 60.2030565,36.9185771 C60.1227706,36.9194941 60.0052455,37.0329438 59.9704006,37.120107 C59.6199647,37.9967315 59.0715141,38.7094729 58.262287,39.2067769 C57.297888,39.799395 56.2548332,39.9257333 55.155996,39.7100922 C53.7350982,39.4311801 52.7247487,38.6087079 52.1220949,37.3224011 C51.5359465,36.0712448 51.4920337,34.759008 51.8962143,33.4373468 C52.6592362,30.9423191 55.2275198,29.8197426 57.4856633,30.6082869 C58.6825145,31.026222 59.4982623,31.8644355 59.957512,33.0421322 Z M115.037716,39.772324 C112.970048,39.576194 111.389648,37.8300771 111.155158,35.8162045 C110.972477,34.247012 111.348283,32.8557629 112.43418,31.6936547 C113.083854,30.9983868 113.912338,30.5876856 114.847139,30.4305269 C116.197226,30.2035256 117.433049,30.5060242 118.487362,31.3863166 C119.376468,32.1287576 119.846415,33.1205638 120.015291,34.2561818 C120.05737,34.5393221 120.066234,34.8273529 120.080141,34.9924078 C120.068883,36.4689352 119.654055,37.6640543 118.661077,38.6119479 C117.647518,39.5795053 116.425247,39.9039094 115.037716,39.772324 Z M115.794014,27.1859261 C114.315907,27.2627479 113.023742,27.7726349 111.92572,28.7652562 C111.714613,28.9560372 111.511096,29.1552237 111.304064,29.3505386 C111.276504,29.3434066 111.248944,29.3363255 111.221384,29.3291935 C111.221384,29.224455 111.221384,29.1197165 111.221333,29.014978 C111.221282,26.4481718 111.218276,23.8813656 111.225765,21.3146104 C111.226478,21.0641244 111.160711,20.9758914 110.897184,20.9802215 C109.972571,20.9953515 109.047602,20.9859271 108.122785,20.9861309 C107.74479,20.9862328 107.744637,20.9865384 107.744637,21.3575552 C107.744586,25.1442388 107.744535,28.9309223 107.744535,32.7176059 C107.744535,35.9451409 107.74479,39.1726758 107.744127,42.4002616 C107.744127,42.5642466 107.716465,42.7183997 107.97663,42.715496 C108.960693,42.7045942 109.945011,42.7082111 110.929176,42.7140186 C111.105387,42.7150884 111.169269,42.6551287 111.166264,42.4782551 C111.158113,41.9955207 111.161322,41.5125316 111.165754,41.0296953 C111.16662,40.9393737 111.194079,40.8493067 111.209209,40.7590869 C111.242729,40.7420211 111.2763,40.7250062 111.309821,40.7079403 C111.353835,40.7802791 111.388731,40.8604122 111.44324,40.9237851 C112.044671,41.6232304 112.775294,42.1558888 113.623441,42.508668 C115.102668,43.1239557 116.629324,43.1583421 118.156132,42.7345995 C120.465778,42.0935857 122.055195,40.6150206 122.978025,38.4232556 C123.634415,36.8640479 123.784501,35.2391749 123.490866,33.5760948 C123.106095,31.3970146 122.044956,29.6261903 120.198074,28.3849679 C118.877839,27.4977473 117.397796,27.1025327 115.794014,27.1859261 Z M164.164261,30.1971628 C165.305839,30.1753593 166.327702,30.4516223 167.184968,31.2279913 C167.778044,31.7650817 168.101022,32.4533195 168.279373,33.2201622 C168.330571,33.4402353 168.205455,33.4554163 168.03933,33.4550712 C166.792708,33.4524616 165.546035,33.4536333 164.29931,33.4536333 C163.078108,33.4537861 161.856856,33.4540408 160.635603,33.4536842 C160.267286,33.4535823 160.262905,33.4473673 160.358372,33.1064578 C160.832599,31.4134742 162.404135,30.2307851 164.164261,30.1971628 Z M171.561111,35.929965 C171.91119,35.9295574 171.916743,35.9242084 171.910171,35.5827895 C171.900951,35.1006664 171.881338,34.618798 171.868245,34.1367768 C171.837119,32.9897477 171.535487,31.9073651 170.992589,30.9074589 C170.058195,29.1864568 168.618143,28.0642368 166.742784,27.5043749 C165.385717,27.0992774 164.005981,27.0554666 162.627366,27.3565388 C160.370242,27.8494108 158.622749,29.0765221 157.500631,31.1064417 C156.550853,32.824591 156.269903,34.6745295 156.625739,36.6071992 C157.137765,39.3884748 158.698094,41.3476347 161.322924,42.4175363 C162.917944,43.0676689 164.581126,43.1767376 166.264583,42.8162151 C168.618703,42.3120847 170.401652,41.0544586 171.423056,38.8287148 C171.572217,38.5035975 171.674866,38.1571862 171.805484,37.8031844 C171.715366,37.7875958 171.682915,37.7770507 171.650516,37.7770507 C170.547196,37.7761337 169.443875,37.7784771 168.340555,37.7734847 C168.182734,37.7727715 168.125831,37.8518857 168.066279,37.9807202 C167.780082,38.5997776 167.328372,39.0721706 166.733207,39.4018218 C165.77976,39.9299972 164.751734,40.000553 163.697573,39.8577603 C161.697506,39.5868462 160.313186,37.9697165 160.080835,35.9538062 C160.196119,35.9453497 160.310333,35.9297103 160.424496,35.9296593 C162.533682,35.9286405 164.642869,35.9295065 166.752005,35.929914 C168.355074,35.9302706 169.958093,35.931697 171.561111,35.929965 Z M133.515252,39.4553474 C132.373521,40.1681397 131.136985,40.3592773 129.841763,39.9168896 C129.166057,39.6861695 128.703089,39.2399611 128.636456,38.494871 C128.567122,37.7199285 128.946443,37.1897663 129.614049,36.8352041 C130.338558,36.4504327 131.129649,36.3166568 131.928637,36.2043279 C132.498178,36.1242967 133.07047,36.052722 133.632624,35.9348912 C134.119332,35.8328526 134.559835,35.6120663 134.900999,35.229995 C134.954999,35.1695258 135.019237,35.1182264 135.078739,35.0626478 C135.110731,35.0717156 135.142723,35.0807834 135.174715,35.0899022 C135.140431,35.830713 135.169977,36.5815087 135.055967,37.3098895 C134.907927,38.2556944 134.309604,38.9593679 133.515252,39.4553474 Z M138.992779,39.645568 C138.569546,39.6449567 138.568375,39.6438869 138.567865,39.2202971 C138.564809,36.8821224 138.571482,34.5438968 138.553448,32.2058749 C138.547845,31.4814167 138.374079,30.7785582 138.071071,30.1178295 C137.463628,28.7932646 136.401317,27.9902525 135.040073,27.5571874 C133.565532,27.0880547 132.056096,27.0611569 130.546099,27.3173485 C129.368046,27.5171973 128.283116,27.9633038 127.378371,28.7749252 C126.39711,29.6551157 125.887121,30.7870147 125.631999,32.0536067 C125.595422,32.2353708 125.710961,32.2466801 125.84219,32.2466291 C126.84342,32.2460688 127.844702,32.2445405 128.845933,32.2483612 C128.995603,32.2489216 129.064019,32.2053145 129.104671,32.0466275 C129.306456,31.2595096 129.786541,30.6919044 130.531631,30.3666853 C131.231331,30.061283 131.973467,30.0035647 132.724925,30.071013 C133.302718,30.1228219 133.856926,30.2467659 134.345926,30.598679 C135.180013,31.1989386 135.371915,32.5338958 134.147911,33.1083783 C133.469505,33.4267202 132.748307,33.5486264 132.018194,33.6551479 C131.122619,33.7857653 130.219199,33.8849001 129.336971,34.078432 C128.312051,34.3032937 127.340877,34.6976423 126.539291,35.4039648 C125.476216,36.3406509 125.127767,37.5457549 125.245088,38.9273248 C125.405355,40.8152157 126.442806,42.0096726 128.184185,42.6184396 C129.339925,43.0224164 130.539476,43.0549689 131.748758,42.8732558 C133.083511,42.6725919 134.192486,42.0952057 134.98913,40.9831743 C135.153778,40.7533202 135.297742,40.5087436 135.491223,40.2089959 C135.523317,40.3379832 135.539721,40.3845449 135.546088,40.4323803 C135.705998,41.6373314 136.536774,42.5240935 137.742082,42.6518582 C138.539388,42.7363214 139.350093,42.6939879 140.154735,42.7120217 C140.327431,42.7158933 140.34144,42.6133454 140.341135,42.4807411 C140.339097,41.6166486 140.335633,40.7525051 140.343538,39.8884635 C140.345261,39.6939128 140.268643,39.6388436 140.087286,39.6432246 C139.722638,39.6520887 139.357632,39.6460774 138.992779,39.645568 Z M73.691963,39.764219 C72.2155884,39.9374247 70.9290777,39.5396629 69.901153,38.4622727 C69.0141871,37.5325658 68.6147443,36.3910385 68.6286007,35.1682064 C68.6225895,33.8584659 68.9872893,32.7385893 69.8194916,31.7934467 C70.501005,31.0193701 71.3713126,30.5741297 72.3856865,30.4168182 C74.9531041,30.0186998 77.2586244,31.8028711 77.5527175,34.3819036 C77.6929122,35.6113582 77.5088047,36.7660288 76.8377856,37.8106118 C76.1049727,38.9514259 75.0510162,39.6047169 73.691963,39.764219 Z M65.1751852,36.0500271 C65.6080466,40.269572 69.156063,43.4008759 73.9356226,42.9588958 C78.4093723,42.5452399 81.2320135,38.9079717 81.1069998,34.8284176 C80.9901878,30.1876263 77.1710537,26.7616181 72.2674482,27.2107811 C67.9663437,27.6047731 64.6784416,31.2079606 65.1751852,36.0500271 Z M101.234401,27.4857095 C100.148452,27.1289567 99.0390189,27.0837195 97.9241348,27.2705269 C96.627079,27.4878491 95.5161683,28.0590203 94.689366,29.1133843 C94.6130536,29.2106852 94.533328,29.3053879 94.4552326,29.4013133 C94.429914,29.3941304 94.4045955,29.3868965 94.3792769,29.3797135 C94.3723996,29.2916843 94.3599695,29.2037569 94.359562,29.1157277 C94.3575243,28.658261 94.348813,28.2004885 94.3627714,27.7434293 C94.3694449,27.5252921 94.3073965,27.446942 94.0776952,27.4497438 C93.1274583,27.4612569 92.1769667,27.4618173 91.2267808,27.4494382 C90.9881135,27.4463307 90.9249444,27.5248336 90.9251991,27.7549424 C90.93065,32.6431122 90.9309047,37.5313329 90.924688,42.4195537 C90.924384,42.6612265 91.0079303,42.7183335 91.2347278,42.7157863 C92.1849647,42.7051902 93.1355073,42.7021336 94.0855914,42.7175184 C94.3486093,42.7217466 94.4115746,42.6392192 94.4106576,42.3856767 C94.4017427,39.8357326 94.4033219,37.2856865 94.4074992,34.7356915 C94.4080596,34.3897386 94.4266028,34.0426141 94.4581364,33.6980367 C94.6092329,32.0491696 95.7694052,30.7452365 97.4048743,30.4349946 C98.6078896,30.2068216 99.7071853,30.4525699 100.585695,31.3531884 C101.281268,32.0662864 101.518458,32.9754124 101.523298,33.938385 C101.537511,36.759447 101.531194,39.5806108 101.523451,42.4016727 C101.522788,42.6464022 101.592784,42.7199636 101.838736,42.7165505 C102.780363,42.7034582 103.722348,42.7115071 104.664179,42.7113034 C104.998058,42.7112015 104.998568,42.710692 104.998619,42.3754372 C104.998721,39.4272728 105.002134,36.4790575 104.996785,33.5308932 C104.9949,32.4987402 104.824445,31.4932303 104.43514,30.5323464 C103.82892,29.036104 102.786222,27.9955455 101.234401,27.4857095 Z M147.544606,33.2998776 C146.933343,33.1989598 146.316374,33.1086891 145.800323,32.7296234 C145.359362,32.4057797 145.170822,31.9659901 145.279381,31.419679 C145.402255,30.8012838 145.838836,30.4605271 146.389884,30.2709688 C147.289943,29.9613891 148.216848,29.9412158 149.144619,30.1393834 C150.09781,30.342951 150.791856,30.8593587 151.120182,31.8105125 C151.145959,31.8850929 151.271788,31.9729183 151.352074,31.9738862 C152.327731,31.9851446 153.303542,31.9782673 154.279301,31.9838201 C154.468197,31.9848899 154.518478,31.9101058 154.485008,31.7361869 C154.099676,29.7350501 152.969153,28.3584216 151.046111,27.6491953 C149.966276,27.2509241 148.848284,27.13778 147.702223,27.1848512 C146.683825,27.2266753 145.701901,27.4082356 144.763534,27.8080351 C142.676253,28.6972424 141.470181,30.5095341 142.025101,32.9611076 C142.395252,34.5964239 143.570147,35.5020349 145.096751,35.9332661 C146.149893,36.2307214 147.251837,36.3560917 148.331673,36.559914 C149.004118,36.6868126 149.686498,36.7778475 150.34524,36.9557399 C151.051409,37.1464699 151.472961,37.7058733 151.46802,38.3870301 C151.46369,38.9942179 151.201029,39.5109312 150.462204,39.8059412 C149.17493,40.3199036 147.860961,40.2996792 146.559167,39.8657481 C145.730582,39.589536 145.150394,39.0423589 144.922578,38.1659382 C144.905563,38.1004766 144.76496,38.0267623 144.680599,38.025285 C144.010497,38.0137209 143.340089,38.0187133 142.669783,38.0186624 C142.289902,38.0186624 141.910021,38.0186624 141.511699,38.0186624 C141.511699,38.1065897 141.496417,38.176738 141.514145,38.2372581 C141.661064,38.7392489 141.757906,39.2654376 141.975534,39.7355891 C142.7058,41.3131362 144.015795,42.2066737 145.650245,42.6553274 C146.818059,42.9759107 148.012312,43.0733644 149.224242,42.9722428 C150.505047,42.8654157 151.725587,42.6010223 152.841235,41.9109505 C154.866672,40.658164 155.277883,38.1834625 154.452099,36.3235392 C153.831055,34.9248015 152.593704,34.2397221 151.17194,33.9185275 C149.97728,33.6486323 148.755059,33.4997773 147.544606,33.2998776 Z M82.4142085,27.4518987 C82.2364689,27.4514402 82.1774261,27.5138962 82.1786488,27.6892924 C82.1847619,28.5618414 82.1870034,29.4345433 82.1773752,30.3070924 C82.1750318,30.5173844 82.2587309,30.5645066 82.4491043,30.5609915 C82.9665308,30.5514652 83.484263,30.5576802 84.0018932,30.5577821 C84.4204906,30.557884 84.4207962,30.5579859 84.4208472,30.9675154 C84.4208981,34.7714686 84.4208472,38.5754219 84.421,42.3793751 C84.421,42.7107583 84.4216113,42.7112168 84.7593624,42.7113869 C85.6927881,42.7113869 86.6261629,42.7113869 87.5595887,42.7110639 C87.8967794,42.7109111 87.8977983,42.7103507 87.8978492,42.3759109 C87.8981039,39.9529164 87.898002,37.5298709 87.898002,35.1068763 C87.898053,34.9798249 87.898053,34.8527225 87.898002,34.7256201 C87.898002,32.4043074 87.8974926,30.0829439 87.8990209,27.7615803 C87.8991099,27.5909217 87.9099736,27.4493006 87.658265,27.4504082 C85.9102631,27.4583175 84.1622613,27.4563817 82.4142085,27.4518987 Z M83.9125765,23.3551057 C83.9110519,24.6264862 84.8434079,25.5348991 86.1501937,25.5353068 C87.4851001,25.5356632 88.3979959,24.6494615 88.3999885,23.351234 C88.4019185,22.0724157 87.4517835,21.1436258 86.1467806,21.1486785 C84.8692359,21.1537125 83.9141085,22.0969702 83.9125765,23.3551057 Z" id="形状结合" fill="#FFFFFF"></path>
                    </g>
                </g>
            </g>
        </g>
    </g>
</svg>