<?xml version="1.0" encoding="UTF-8"?>
<svg width="220px" height="64px" viewBox="0 0 220 64" version="1.1" xmlns="http://www.w3.org/2000/svg" xmlns:xlink="http://www.w3.org/1999/xlink">

    <g id="L4" stroke="none" stroke-width="1" fill="none" fill-rule="evenodd">
        <g id="L4官网" transform="translate(-364.000000, -4592.000000)">
            <g id="编组-16" transform="translate(0.000000, 3456.000000)">
                <g id="编组-9" transform="translate(120.000000, 1019.000000)">
                    <g id="编组-31" transform="translate(244.000000, 117.000000)">
                        <rect id="矩形备份-7" fill-opacity="0" fill="#9D9D9D" x="0" y="0" width="220" height="64"></rect>
                        <path d="M163.590364,35.0567465 C160.788697,35.1336176 157.98343,35.0830055 155.127339,35.0830055 L155.127339,31.0558473 C158.014983,31.0558473 160.82025,31.0187882 163.623611,31.0757533 C164.608536,31.0958711 165.333835,32.0310307 165.343365,33.0168025 C165.353529,34.0502216 164.64263,35.0279463 163.590364,35.0567465 M167.181707,32.2773149 C166.836952,30.3059831 165.176281,29.1347042 162.700734,29.12581 C161.115029,29.1198805 159.529323,29.1243276 157.943406,29.1241159 C156.333347,29.1241159 154.723289,29.1241159 153.084642,29.1241159 L153.084642,41.7337353 C155.072068,41.9795959 155.07228,41.9795959 155.073338,40.1681477 C155.073974,39.1298579 155.07355,38.0917799 155.07355,37.0043604 C157.163471,37.0043604 159.064285,36.973866 160.962345,37.032737 C161.299477,37.0431136 161.714327,37.355257 161.939858,37.6468591 C162.714711,38.6487251 163.420951,39.7035326 164.154086,40.7377988 C165.017245,41.9554546 165.618661,42.1354558 167.206696,41.6159933 C166.158029,40.0654411 165.118469,38.5284418 164.067473,36.9749249 C166.502785,36.0171063 167.55251,34.3973065 167.181707,32.2773149 M127.898375,41.7586179 L141.075316,41.7586179 L141.075316,39.939546 L129.985119,39.939546 L129.985119,36.3632382 L137.275383,36.3632382 L137.275383,34.4861424 L129.990413,34.4861424 L129.990413,31.0057646 L141.079128,31.0057646 L141.079128,29.2311637 L127.898375,29.2311637 L127.898375,41.7586179 Z M88.4319071,39.4617591 C85.5340982,36.3473133 82.7481019,33.4954577 80.1433774,30.4864715 C79.0282165,29.1985093 77.8353374,28.959637 76.2045257,29.2967689 L76.2045257,30.4007062 C76.2043139,33.647294 76.2038904,36.8936702 76.2043139,40.1402581 C76.2045257,41.9288355 76.205161,41.9296826 78.0030562,41.7926699 C78.0642566,41.788011 78.1212218,41.7270223 78.3092702,41.6158451 L78.3092702,31.4121016 C81.2411734,34.5648771 84.0627465,37.4785685 86.7310009,40.5269432 C87.809738,41.7594226 88.959205,42.0707189 90.5207691,41.710081 L90.5207691,29.243192 L88.4319071,29.243192 L88.4319071,39.4617591 Z M36.067585,35.0855043 C33.329236,35.1348458 30.5894047,35.1013868 27.7623256,35.1013868 L27.7623256,31.0297577 C29.1360531,31.0297577 30.459592,31.0295459 31.7833426,31.0299695 C33.1907409,31.030393 34.5987745,31.0045575 36.0053257,31.0405578 C37.1994754,31.0712639 38.0266342,31.9128228 38.0387049,33.0207837 C38.0503521,34.121121 37.2329345,35.0645395 36.067585,35.0855043 M36.3674459,29.1812504 C34.3624434,29.0878615 32.3510878,29.133603 30.3422735,29.1253441 C28.8353451,29.1192029 27.3279931,29.1240735 25.7660055,29.1240735 L25.7660055,41.7629167 L27.7134077,41.7629167 L27.7134077,37.0032592 C30.3331675,37.0032592 32.8281971,37.0132122 35.3232267,36.9954238 C35.881866,36.9914003 36.4555407,36.9541294 36.9953328,36.8217755 C38.8766638,36.3605487 40.06679,34.6676896 39.9282949,32.7264286 C39.7929763,30.828368 38.3048951,29.2716746 36.3674459,29.1812504 M183.18128,37.0141863 C184.264676,34.9687364 185.290895,33.0312873 186.401821,30.9341664 C187.496017,33.0141342 188.516095,34.9532775 189.600338,37.0141863 L183.18128,37.0141863 Z M194.186771,41.4121471 C192.121415,37.4948956 190.061776,33.5744676 187.973338,29.6694986 C187.539006,28.8575869 185.174424,28.9524582 184.734374,29.7758052 C183.45827,32.1626223 182.196356,34.5570629 180.930841,36.9495976 C180.100717,38.5192088 179.274194,40.0907259 178.426282,41.6990904 C180.516838,42.0328339 180.516414,42.0326222 181.391432,40.3507749 C181.505151,40.1324439 181.656987,39.9283013 181.735129,39.6985349 C181.939271,39.0981777 182.351792,38.9611649 182.951937,38.9702709 C185.029576,39.0024594 187.112508,39.0657775 189.184217,38.9503649 C190.361849,38.8847173 190.93743,39.2959673 191.394845,40.3423042 C192.159533,42.0910696 192.237674,42.0669283 194.233994,41.6997257 C194.219594,41.6037956 194.229971,41.4938889 194.186771,41.4121471 L194.186771,41.4121471 Z M53.4978718,37.0125981 C54.5886796,34.9633364 55.6193458,33.0267343 56.7306949,30.9391429 C57.8270086,33.0256755 58.8428511,34.9593128 59.9218,37.0125981 L53.4978718,37.0125981 Z M54.9931531,29.8771354 C53.0120801,33.6090914 51.0373601,37.3444357 49.0670872,41.0821095 C48.9626865,41.2798991 48.9190626,41.5094537 48.8413444,41.741973 C50.8520647,41.9715276 50.8520647,41.9717394 51.702306,40.3900575 C51.8024714,40.203915 51.9314371,40.0268784 51.9947552,39.828877 C52.2092744,39.1584252 52.6292068,38.9456001 53.3439177,38.9640238 C55.3889441,39.0169653 57.4405352,39.0622833 59.4809028,38.9517413 C60.6496405,38.8884232 61.256139,39.2719319 61.7201187,40.33161 C62.477183,42.0600459 62.5614659,42.0384457 64.6791281,41.698561 C62.5271598,37.6241789 60.4342743,33.6347151 58.3102591,29.6619809 C57.8496676,28.8007277 55.47238,28.9741642 54.9931531,29.8771354 L54.9931531,29.8771354 Z M102.227841,31.0621368 L108.108377,31.0621368 L108.108377,33.0180096 L104.327503,33.0180096 L104.327503,34.9245408 L108.181013,34.9245408 C108.181013,36.8742724 108.242637,38.736121 108.157083,40.5914048 C108.108165,41.6540477 108.498239,41.9916031 109.479987,41.8293901 C109.713777,41.7908487 109.949684,41.7643779 110.251663,41.7230835 L110.251663,34.8679992 L114.187762,34.8679992 L114.187762,32.9898446 L110.322181,32.9898446 L110.322181,30.9878068 L116.289541,30.9878068 L116.289541,29.2470885 L102.227841,29.2470885 L102.227841,31.0621368 Z" id="形状结合" fill="#FEFEFE"></path>
                    </g>
                </g>
            </g>
        </g>
    </g>
</svg>