<?xml version="1.0" encoding="UTF-8"?>
<svg width="27px" height="27px" viewBox="0 0 27 27" version="1.1" xmlns="http://www.w3.org/2000/svg" xmlns:xlink="http://www.w3.org/1999/xlink">
    <g id="L4" stroke="none" stroke-width="1" fill="none" fill-rule="evenodd">
        <g id="移动端-L4官网-全" transform="translate(-240.000000, -7966.000000)" fill="#FFFFFF">
            <g id="编组-23" transform="translate(0.000000, 5608.000000)">
                <g id="编组-21" transform="translate(0.000000, 2014.000000)">
                    <g id="编组-5" transform="translate(240.000000, 344.000000)">
                        <rect id="矩形" stroke="#FFFFFF" opacity="0" x="0.5" y="0.5" width="26" height="26"></rect>
                        <path d="M1.44918627,13.4908595 C1.46300678,9.79797425 4.45318555,6.82799939 8.1420197,6.84319724 C11.8142011,6.85842592 14.7860378,9.85713792 14.7694547,13.5305261 C14.7527151,17.2084653 11.7558822,20.1735271 8.07218519,20.1567903 C4.41098489,20.1400148 1.43559703,17.1453539 1.44918627,13.4908595 M22.1022096,13.8238103 C22.0957385,14.7838581 21.9138172,16.0379314 21.4444038,17.2401847 C21.1782879,17.9217909 20.8286155,18.554525 20.3077442,19.0792578 C19.9832059,19.4062267 19.611847,19.6607408 19.1591208,19.7752756 C18.6281303,19.9095833 18.1296523,19.8168039 17.6618421,19.5411378 C17.2093572,19.274522 16.8640979,18.8975432 16.5730203,18.4675895 C16.1308959,17.8145136 15.8431454,17.092672 15.6396065,16.3351288 C15.4582195,15.6600562 15.3529075,14.9726233 15.3051042,14.2750712 C15.2588007,13.5995676 15.2709885,12.9255465 15.3455292,12.2536286 C15.4693903,11.1370867 15.7319377,10.0581082 16.2590494,9.05654934 C16.5381806,8.52621393 16.8813712,8.04421619 17.3566631,7.66853034 C17.7130931,7.38677887 18.1095518,7.19925486 18.5699493,7.16874213 C19.077857,7.13507469 19.5233946,7.30351532 19.9280934,7.59550665 C20.3739068,7.91716601 20.7062025,8.33950014 20.9833857,8.80839636 C21.4274235,9.55950949 21.698349,10.3751648 21.8750987,11.2247979 C22.0311274,11.9747905 22.1029961,12.7336438 22.1022096,13.8238103 M24.9631837,13.2107682 C24.9573053,14.3225866 24.9251376,15.1403968 24.8386159,15.9549316 C24.7570763,16.722594 24.6514712,17.487412 24.408645,18.2238376 C24.3329321,18.4534589 24.2205693,18.6716163 24.1161365,18.8907736 C24.0837275,18.9587635 24.0275289,19.0183237 23.9728473,19.0722295 C23.8083889,19.2343779 23.6357247,19.2372568 23.4756967,19.0721605 C23.3968463,18.9908277 23.3286839,18.895135 23.2728473,18.796253 C23.1095611,18.5070716 23.0136443,18.1909977 22.9317598,17.871407 C22.7619228,17.2086084 22.6663163,16.5333116 22.5988435,15.8532914 C22.4943245,14.7997402 22.4654494,13.7436549 22.5002374,12.6862422 C22.5379215,11.5403943 22.6326489,10.4001146 22.8945067,9.27990082 C22.9735467,8.94183009 23.0657228,8.6064831 23.2253716,8.29659786 C23.2941028,8.1631693 23.3808659,8.03394702 23.4820406,7.92351507 C23.6303807,7.7616252 23.8150431,7.7598496 23.9632798,7.92301514 C24.0714707,8.04208375 24.1645949,8.1818562 24.235343,8.32662791 C24.4278318,8.72058693 24.5293858,9.14528278 24.6171659,9.57249551 C24.7641269,10.2875105 24.8532172,11.0105761 24.8949352,11.738865 C24.9286026,12.3265195 24.9497547,12.9148809 24.9631837,13.2107682" id="形状结合" fill-rule="nonzero"></path>
                    </g>
                </g>
            </g>
        </g>
    </g>
</svg>